%TF.GenerationSoftware,KiCad,Pcbnew,7.0.8*%
%TF.CreationDate,2023-10-11T21:25:33+02:00*%
%TF.ProjectId,test_sr,74657374-5f73-4722-9e6b-696361645f70,rev?*%
%TF.SameCoordinates,Original*%
%TF.FileFunction,Legend,Top*%
%TF.FilePolarity,Positive*%
%FSLAX46Y46*%
G04 Gerber Fmt 4.6, Leading zero omitted, Abs format (unit mm)*
G04 Created by KiCad (PCBNEW 7.0.8) date 2023-10-11 21:25:33*
%MOMM*%
%LPD*%
G01*
G04 APERTURE LIST*
G04 Aperture macros list*
%AMRoundRect*
0 Rectangle with rounded corners*
0 $1 Rounding radius*
0 $2 $3 $4 $5 $6 $7 $8 $9 X,Y pos of 4 corners*
0 Add a 4 corners polygon primitive as box body*
4,1,4,$2,$3,$4,$5,$6,$7,$8,$9,$2,$3,0*
0 Add four circle primitives for the rounded corners*
1,1,$1+$1,$2,$3*
1,1,$1+$1,$4,$5*
1,1,$1+$1,$6,$7*
1,1,$1+$1,$8,$9*
0 Add four rect primitives between the rounded corners*
20,1,$1+$1,$2,$3,$4,$5,0*
20,1,$1+$1,$4,$5,$6,$7,0*
20,1,$1+$1,$6,$7,$8,$9,0*
20,1,$1+$1,$8,$9,$2,$3,0*%
G04 Aperture macros list end*
%ADD10C,0.200000*%
%ADD11C,0.150000*%
%ADD12C,0.120000*%
%ADD13RoundRect,0.200000X0.275000X-0.200000X0.275000X0.200000X-0.275000X0.200000X-0.275000X-0.200000X0*%
%ADD14RoundRect,0.200000X-0.275000X0.200000X-0.275000X-0.200000X0.275000X-0.200000X0.275000X0.200000X0*%
%ADD15RoundRect,0.225000X0.225000X0.250000X-0.225000X0.250000X-0.225000X-0.250000X0.225000X-0.250000X0*%
%ADD16RoundRect,0.218750X0.218750X0.256250X-0.218750X0.256250X-0.218750X-0.256250X0.218750X-0.256250X0*%
%ADD17RoundRect,0.200000X-0.200000X-0.275000X0.200000X-0.275000X0.200000X0.275000X-0.200000X0.275000X0*%
%ADD18R,1.700000X1.700000*%
%ADD19O,1.700000X1.700000*%
%ADD20RoundRect,0.137500X0.137500X-0.662500X0.137500X0.662500X-0.137500X0.662500X-0.137500X-0.662500X0*%
G04 APERTURE END LIST*
D10*
G36*
X49585770Y-52845024D02*
G01*
X49610439Y-52869692D01*
X49640244Y-52929302D01*
X49640244Y-53120183D01*
X49610439Y-53179792D01*
X49585770Y-53204460D01*
X49526161Y-53234266D01*
X49382899Y-53234266D01*
X49323289Y-53204461D01*
X49298621Y-53179792D01*
X49268816Y-53120182D01*
X49268816Y-52929302D01*
X49298621Y-52869692D01*
X49323289Y-52845023D01*
X49382899Y-52815219D01*
X49526161Y-52815219D01*
X49585770Y-52845024D01*
G37*
G36*
X50935482Y-53958076D02*
G01*
X43978472Y-53958076D01*
X43978472Y-52746121D01*
X44121329Y-52746121D01*
X44157656Y-52796121D01*
X44216435Y-52815219D01*
X44731447Y-52815219D01*
X44362615Y-53675827D01*
X44357015Y-53737377D01*
X44388663Y-53790462D01*
X44445469Y-53814808D01*
X44505737Y-53801114D01*
X44546445Y-53754611D01*
X44693250Y-53412064D01*
X45121097Y-53412064D01*
X45121329Y-53412388D01*
X45121329Y-53412787D01*
X45139303Y-53437526D01*
X45157044Y-53462338D01*
X45157421Y-53462463D01*
X45157656Y-53462787D01*
X45186688Y-53472220D01*
X45215676Y-53481883D01*
X45216057Y-53481762D01*
X45216435Y-53481885D01*
X45592625Y-53481885D01*
X45592625Y-53715219D01*
X45611723Y-53773998D01*
X45661723Y-53810325D01*
X45723527Y-53810325D01*
X45773527Y-53773998D01*
X45792625Y-53715219D01*
X46116435Y-53715219D01*
X46135533Y-53773998D01*
X46185533Y-53810325D01*
X46247337Y-53810325D01*
X46297337Y-53773998D01*
X46316435Y-53715219D01*
X46316435Y-53291409D01*
X46687863Y-53291409D01*
X46687863Y-53715219D01*
X46706961Y-53773998D01*
X46756961Y-53810325D01*
X46818765Y-53810325D01*
X46868765Y-53773998D01*
X46887863Y-53715219D01*
X46887863Y-53286647D01*
X47116435Y-53286647D01*
X47120281Y-53298484D01*
X47119421Y-53310901D01*
X47167040Y-53501376D01*
X47172950Y-53510822D01*
X47174611Y-53521844D01*
X47222230Y-53617082D01*
X47233604Y-53628630D01*
X47240962Y-53643071D01*
X47336200Y-53738311D01*
X47356744Y-53748779D01*
X47375288Y-53762468D01*
X47518145Y-53810087D01*
X47534352Y-53810210D01*
X47549768Y-53815219D01*
X47645006Y-53815219D01*
X47660421Y-53810210D01*
X47676629Y-53810087D01*
X47819485Y-53762468D01*
X47838032Y-53748776D01*
X47858574Y-53738310D01*
X47906193Y-53690690D01*
X47934251Y-53635622D01*
X47924583Y-53574580D01*
X47880880Y-53530879D01*
X47819838Y-53521211D01*
X47764770Y-53549270D01*
X47733843Y-53580197D01*
X47628779Y-53615219D01*
X47565994Y-53615219D01*
X47460929Y-53580197D01*
X47393859Y-53513127D01*
X47358405Y-53442218D01*
X47316435Y-53274337D01*
X47316435Y-53181459D01*
X48116931Y-53181459D01*
X48122927Y-53208983D01*
X48127334Y-53236808D01*
X48129449Y-53238923D01*
X48130086Y-53241846D01*
X48151116Y-53260590D01*
X48171036Y-53280510D01*
X48173990Y-53280977D01*
X48176223Y-53282968D01*
X48204255Y-53285771D01*
X48232078Y-53290178D01*
X48234742Y-53288820D01*
X48237720Y-53289118D01*
X48262048Y-53274907D01*
X48287146Y-53262120D01*
X48323289Y-53225975D01*
X48382899Y-53196171D01*
X48573780Y-53196171D01*
X48633389Y-53225976D01*
X48658058Y-53250644D01*
X48687863Y-53310254D01*
X48687863Y-53501135D01*
X48658058Y-53560743D01*
X48633389Y-53585413D01*
X48573780Y-53615219D01*
X48382899Y-53615219D01*
X48323289Y-53585414D01*
X48287146Y-53549270D01*
X48232079Y-53521211D01*
X48171037Y-53530878D01*
X48127334Y-53574580D01*
X48117665Y-53635622D01*
X48145724Y-53690690D01*
X48193342Y-53738310D01*
X48207785Y-53745669D01*
X48219333Y-53757043D01*
X48314570Y-53804662D01*
X48337368Y-53808095D01*
X48359292Y-53815219D01*
X48597387Y-53815219D01*
X48619310Y-53808095D01*
X48642108Y-53804662D01*
X48737346Y-53757043D01*
X48748894Y-53745668D01*
X48763336Y-53738310D01*
X48810955Y-53690690D01*
X48818312Y-53676249D01*
X48829687Y-53664701D01*
X48877306Y-53569464D01*
X48880739Y-53546665D01*
X48887863Y-53524742D01*
X48887863Y-53286647D01*
X48880739Y-53264723D01*
X48877306Y-53241925D01*
X48829687Y-53146688D01*
X48826833Y-53143790D01*
X49068816Y-53143790D01*
X49075939Y-53165713D01*
X49079373Y-53188511D01*
X49126992Y-53283749D01*
X49138365Y-53295296D01*
X49145724Y-53309739D01*
X49193343Y-53357357D01*
X49207784Y-53364715D01*
X49219333Y-53376090D01*
X49314570Y-53423709D01*
X49337368Y-53427142D01*
X49359292Y-53434266D01*
X49549768Y-53434266D01*
X49571691Y-53427142D01*
X49594489Y-53423709D01*
X49604102Y-53418902D01*
X49599812Y-53436064D01*
X49519675Y-53556269D01*
X49490532Y-53585413D01*
X49430923Y-53615219D01*
X49264054Y-53615219D01*
X49205275Y-53634317D01*
X49168948Y-53684317D01*
X49168948Y-53746121D01*
X49205275Y-53796121D01*
X49264054Y-53815219D01*
X49454530Y-53815219D01*
X49476453Y-53808095D01*
X49499251Y-53804662D01*
X49594489Y-53757043D01*
X49606037Y-53745668D01*
X49620479Y-53738310D01*
X49668098Y-53690690D01*
X49672676Y-53681703D01*
X49680592Y-53675450D01*
X49775830Y-53532593D01*
X49780492Y-53515993D01*
X49789639Y-53501377D01*
X49837258Y-53310901D01*
X49836397Y-53298484D01*
X49840244Y-53286647D01*
X49840244Y-53181459D01*
X50021693Y-53181459D01*
X50027689Y-53208983D01*
X50032096Y-53236808D01*
X50034211Y-53238923D01*
X50034848Y-53241846D01*
X50055878Y-53260590D01*
X50075798Y-53280510D01*
X50078752Y-53280977D01*
X50080985Y-53282968D01*
X50109017Y-53285771D01*
X50136840Y-53290178D01*
X50139504Y-53288820D01*
X50142482Y-53289118D01*
X50166810Y-53274907D01*
X50191908Y-53262120D01*
X50228051Y-53225975D01*
X50287661Y-53196171D01*
X50478542Y-53196171D01*
X50538151Y-53225976D01*
X50562820Y-53250644D01*
X50592625Y-53310254D01*
X50592625Y-53501135D01*
X50562820Y-53560743D01*
X50538151Y-53585413D01*
X50478542Y-53615219D01*
X50287661Y-53615219D01*
X50228051Y-53585414D01*
X50191908Y-53549270D01*
X50136841Y-53521211D01*
X50075799Y-53530878D01*
X50032096Y-53574580D01*
X50022427Y-53635622D01*
X50050486Y-53690690D01*
X50098104Y-53738310D01*
X50112547Y-53745669D01*
X50124095Y-53757043D01*
X50219332Y-53804662D01*
X50242130Y-53808095D01*
X50264054Y-53815219D01*
X50502149Y-53815219D01*
X50524072Y-53808095D01*
X50546870Y-53804662D01*
X50642108Y-53757043D01*
X50653656Y-53745668D01*
X50668098Y-53738310D01*
X50715717Y-53690690D01*
X50723074Y-53676249D01*
X50734449Y-53664701D01*
X50782068Y-53569464D01*
X50785501Y-53546665D01*
X50792625Y-53524742D01*
X50792625Y-53286647D01*
X50785501Y-53264723D01*
X50782068Y-53241925D01*
X50734449Y-53146688D01*
X50723074Y-53135139D01*
X50715716Y-53120698D01*
X50668098Y-53073079D01*
X50653655Y-53065720D01*
X50642108Y-53054347D01*
X50546870Y-53006728D01*
X50524072Y-53003294D01*
X50502149Y-52996171D01*
X50264054Y-52996171D01*
X50242130Y-53003294D01*
X50240482Y-53003542D01*
X50259315Y-52815219D01*
X50645006Y-52815219D01*
X50703785Y-52796121D01*
X50740112Y-52746121D01*
X50740112Y-52684317D01*
X50703785Y-52634317D01*
X50645006Y-52615219D01*
X50168816Y-52615219D01*
X50158414Y-52618598D01*
X50147531Y-52617510D01*
X50129688Y-52627932D01*
X50110037Y-52634317D01*
X50103608Y-52643165D01*
X50094164Y-52648682D01*
X50085855Y-52667600D01*
X50073710Y-52684317D01*
X50073710Y-52695254D01*
X50069312Y-52705269D01*
X50021693Y-53181459D01*
X49840244Y-53181459D01*
X49840244Y-52905695D01*
X49833120Y-52883771D01*
X49829687Y-52860973D01*
X49782068Y-52765736D01*
X49770693Y-52754187D01*
X49763335Y-52739746D01*
X49715717Y-52692127D01*
X49701274Y-52684768D01*
X49689727Y-52673395D01*
X49594489Y-52625776D01*
X49571691Y-52622342D01*
X49549768Y-52615219D01*
X49359292Y-52615219D01*
X49337368Y-52622342D01*
X49314570Y-52625776D01*
X49219333Y-52673395D01*
X49207784Y-52684769D01*
X49193343Y-52692128D01*
X49145724Y-52739746D01*
X49138365Y-52754188D01*
X49126992Y-52765736D01*
X49079373Y-52860974D01*
X49075939Y-52883771D01*
X49068816Y-52905695D01*
X49068816Y-53143790D01*
X48826833Y-53143790D01*
X48818312Y-53135139D01*
X48810954Y-53120698D01*
X48763336Y-53073079D01*
X48748893Y-53065720D01*
X48737346Y-53054347D01*
X48642108Y-53006728D01*
X48619310Y-53003294D01*
X48597387Y-52996171D01*
X48359292Y-52996171D01*
X48337368Y-53003294D01*
X48335720Y-53003542D01*
X48354553Y-52815219D01*
X48740244Y-52815219D01*
X48799023Y-52796121D01*
X48835350Y-52746121D01*
X48835350Y-52684317D01*
X48799023Y-52634317D01*
X48740244Y-52615219D01*
X48264054Y-52615219D01*
X48253652Y-52618598D01*
X48242769Y-52617510D01*
X48224926Y-52627932D01*
X48205275Y-52634317D01*
X48198846Y-52643165D01*
X48189402Y-52648682D01*
X48181093Y-52667600D01*
X48168948Y-52684317D01*
X48168948Y-52695254D01*
X48164550Y-52705269D01*
X48116931Y-53181459D01*
X47316435Y-53181459D01*
X47316435Y-53156100D01*
X47358405Y-52988218D01*
X47393858Y-52917312D01*
X47460930Y-52850240D01*
X47565994Y-52815219D01*
X47628779Y-52815219D01*
X47733844Y-52850240D01*
X47764771Y-52881167D01*
X47819838Y-52909226D01*
X47880881Y-52899558D01*
X47924583Y-52855856D01*
X47934251Y-52794813D01*
X47906192Y-52739746D01*
X47858574Y-52692127D01*
X47838030Y-52681659D01*
X47819485Y-52667970D01*
X47676629Y-52620351D01*
X47660421Y-52620227D01*
X47645006Y-52615219D01*
X47549768Y-52615219D01*
X47534352Y-52620227D01*
X47518145Y-52620351D01*
X47375288Y-52667970D01*
X47356741Y-52681660D01*
X47336200Y-52692127D01*
X47240962Y-52787365D01*
X47233603Y-52801807D01*
X47222230Y-52813355D01*
X47174611Y-52908593D01*
X47172950Y-52919614D01*
X47167040Y-52929061D01*
X47119421Y-53119536D01*
X47120281Y-53131952D01*
X47116435Y-53143790D01*
X47116435Y-53286647D01*
X46887863Y-53286647D01*
X46887863Y-52715219D01*
X46868765Y-52656440D01*
X46818765Y-52620113D01*
X46756961Y-52620113D01*
X46706961Y-52656440D01*
X46687863Y-52715219D01*
X46687863Y-53091409D01*
X46316435Y-53091409D01*
X46316435Y-52715219D01*
X46297337Y-52656440D01*
X46247337Y-52620113D01*
X46185533Y-52620113D01*
X46135533Y-52656440D01*
X46116435Y-52715219D01*
X46116435Y-53715219D01*
X45792625Y-53715219D01*
X45792625Y-53481885D01*
X45835482Y-53481885D01*
X45894261Y-53462787D01*
X45930588Y-53412787D01*
X45930588Y-53350983D01*
X45894261Y-53300983D01*
X45835482Y-53281885D01*
X45792625Y-53281885D01*
X45792625Y-53048552D01*
X45773527Y-52989773D01*
X45723527Y-52953446D01*
X45661723Y-52953446D01*
X45611723Y-52989773D01*
X45592625Y-53048552D01*
X45592625Y-53281885D01*
X45355177Y-53281885D01*
X45549398Y-52699223D01*
X45549868Y-52637421D01*
X45513921Y-52587147D01*
X45455289Y-52567603D01*
X45396367Y-52586254D01*
X45359662Y-52635978D01*
X45121567Y-53350262D01*
X45121563Y-53350659D01*
X45121329Y-53350983D01*
X45121329Y-53381557D01*
X45121097Y-53412064D01*
X44693250Y-53412064D01*
X44975015Y-52754611D01*
X44975441Y-52749927D01*
X44978207Y-52746121D01*
X44978207Y-52719534D01*
X44980616Y-52693062D01*
X44978207Y-52689021D01*
X44978207Y-52684317D01*
X44962578Y-52662806D01*
X44948968Y-52639976D01*
X44944645Y-52638123D01*
X44941880Y-52634317D01*
X44916593Y-52626101D01*
X44892161Y-52615630D01*
X44887573Y-52616672D01*
X44883101Y-52615219D01*
X44216435Y-52615219D01*
X44157656Y-52634317D01*
X44121329Y-52684317D01*
X44121329Y-52746121D01*
X43978472Y-52746121D01*
X43978472Y-52424746D01*
X50935482Y-52424746D01*
X50935482Y-53958076D01*
G37*
D11*
X56102493Y-74176700D02*
X56195350Y-74207652D01*
X56195350Y-74207652D02*
X56350112Y-74207652D01*
X56350112Y-74207652D02*
X56412017Y-74176700D01*
X56412017Y-74176700D02*
X56442969Y-74145747D01*
X56442969Y-74145747D02*
X56473922Y-74083842D01*
X56473922Y-74083842D02*
X56473922Y-74021938D01*
X56473922Y-74021938D02*
X56442969Y-73960033D01*
X56442969Y-73960033D02*
X56412017Y-73929080D01*
X56412017Y-73929080D02*
X56350112Y-73898128D01*
X56350112Y-73898128D02*
X56226303Y-73867176D01*
X56226303Y-73867176D02*
X56164398Y-73836223D01*
X56164398Y-73836223D02*
X56133445Y-73805271D01*
X56133445Y-73805271D02*
X56102493Y-73743366D01*
X56102493Y-73743366D02*
X56102493Y-73681461D01*
X56102493Y-73681461D02*
X56133445Y-73619557D01*
X56133445Y-73619557D02*
X56164398Y-73588604D01*
X56164398Y-73588604D02*
X56226303Y-73557652D01*
X56226303Y-73557652D02*
X56381064Y-73557652D01*
X56381064Y-73557652D02*
X56473922Y-73588604D01*
X56752493Y-73867176D02*
X56969160Y-73867176D01*
X57062017Y-74207652D02*
X56752493Y-74207652D01*
X56752493Y-74207652D02*
X56752493Y-73557652D01*
X56752493Y-73557652D02*
X57062017Y-73557652D01*
X57712017Y-74207652D02*
X57495350Y-73898128D01*
X57340588Y-74207652D02*
X57340588Y-73557652D01*
X57340588Y-73557652D02*
X57588207Y-73557652D01*
X57588207Y-73557652D02*
X57650112Y-73588604D01*
X57650112Y-73588604D02*
X57681065Y-73619557D01*
X57681065Y-73619557D02*
X57712017Y-73681461D01*
X57712017Y-73681461D02*
X57712017Y-73774319D01*
X57712017Y-73774319D02*
X57681065Y-73836223D01*
X57681065Y-73836223D02*
X57650112Y-73867176D01*
X57650112Y-73867176D02*
X57588207Y-73898128D01*
X57588207Y-73898128D02*
X57340588Y-73898128D01*
X56504874Y-66587652D02*
X56288207Y-66278128D01*
X56133445Y-66587652D02*
X56133445Y-65937652D01*
X56133445Y-65937652D02*
X56381064Y-65937652D01*
X56381064Y-65937652D02*
X56442969Y-65968604D01*
X56442969Y-65968604D02*
X56473922Y-65999557D01*
X56473922Y-65999557D02*
X56504874Y-66061461D01*
X56504874Y-66061461D02*
X56504874Y-66154319D01*
X56504874Y-66154319D02*
X56473922Y-66216223D01*
X56473922Y-66216223D02*
X56442969Y-66247176D01*
X56442969Y-66247176D02*
X56381064Y-66278128D01*
X56381064Y-66278128D02*
X56133445Y-66278128D01*
X57154874Y-66525747D02*
X57123922Y-66556700D01*
X57123922Y-66556700D02*
X57031064Y-66587652D01*
X57031064Y-66587652D02*
X56969160Y-66587652D01*
X56969160Y-66587652D02*
X56876303Y-66556700D01*
X56876303Y-66556700D02*
X56814398Y-66494795D01*
X56814398Y-66494795D02*
X56783445Y-66432890D01*
X56783445Y-66432890D02*
X56752493Y-66309080D01*
X56752493Y-66309080D02*
X56752493Y-66216223D01*
X56752493Y-66216223D02*
X56783445Y-66092414D01*
X56783445Y-66092414D02*
X56814398Y-66030509D01*
X56814398Y-66030509D02*
X56876303Y-65968604D01*
X56876303Y-65968604D02*
X56969160Y-65937652D01*
X56969160Y-65937652D02*
X57031064Y-65937652D01*
X57031064Y-65937652D02*
X57123922Y-65968604D01*
X57123922Y-65968604D02*
X57154874Y-65999557D01*
X57742969Y-66587652D02*
X57433445Y-66587652D01*
X57433445Y-66587652D02*
X57433445Y-65937652D01*
X57959635Y-66587652D02*
X57959635Y-65937652D01*
X58331064Y-66587652D02*
X58052493Y-66216223D01*
X58331064Y-65937652D02*
X57959635Y-66309080D01*
X56071541Y-58317652D02*
X56473922Y-58317652D01*
X56473922Y-58317652D02*
X56257255Y-58565271D01*
X56257255Y-58565271D02*
X56350112Y-58565271D01*
X56350112Y-58565271D02*
X56412017Y-58596223D01*
X56412017Y-58596223D02*
X56442969Y-58627176D01*
X56442969Y-58627176D02*
X56473922Y-58689080D01*
X56473922Y-58689080D02*
X56473922Y-58843842D01*
X56473922Y-58843842D02*
X56442969Y-58905747D01*
X56442969Y-58905747D02*
X56412017Y-58936700D01*
X56412017Y-58936700D02*
X56350112Y-58967652D01*
X56350112Y-58967652D02*
X56164398Y-58967652D01*
X56164398Y-58967652D02*
X56102493Y-58936700D01*
X56102493Y-58936700D02*
X56071541Y-58905747D01*
X56752493Y-58905747D02*
X56783446Y-58936700D01*
X56783446Y-58936700D02*
X56752493Y-58967652D01*
X56752493Y-58967652D02*
X56721541Y-58936700D01*
X56721541Y-58936700D02*
X56752493Y-58905747D01*
X56752493Y-58905747D02*
X56752493Y-58967652D01*
X57000113Y-58317652D02*
X57402494Y-58317652D01*
X57402494Y-58317652D02*
X57185827Y-58565271D01*
X57185827Y-58565271D02*
X57278684Y-58565271D01*
X57278684Y-58565271D02*
X57340589Y-58596223D01*
X57340589Y-58596223D02*
X57371541Y-58627176D01*
X57371541Y-58627176D02*
X57402494Y-58689080D01*
X57402494Y-58689080D02*
X57402494Y-58843842D01*
X57402494Y-58843842D02*
X57371541Y-58905747D01*
X57371541Y-58905747D02*
X57340589Y-58936700D01*
X57340589Y-58936700D02*
X57278684Y-58967652D01*
X57278684Y-58967652D02*
X57092970Y-58967652D01*
X57092970Y-58967652D02*
X57031065Y-58936700D01*
X57031065Y-58936700D02*
X57000113Y-58905747D01*
X57588208Y-58317652D02*
X57804875Y-58967652D01*
X57804875Y-58967652D02*
X58021542Y-58317652D01*
X56150941Y-68984890D02*
X56243798Y-69015842D01*
X56243798Y-69015842D02*
X56398560Y-69015842D01*
X56398560Y-69015842D02*
X56460465Y-68984890D01*
X56460465Y-68984890D02*
X56491417Y-68953937D01*
X56491417Y-68953937D02*
X56522370Y-68892032D01*
X56522370Y-68892032D02*
X56522370Y-68830128D01*
X56522370Y-68830128D02*
X56491417Y-68768223D01*
X56491417Y-68768223D02*
X56460465Y-68737270D01*
X56460465Y-68737270D02*
X56398560Y-68706318D01*
X56398560Y-68706318D02*
X56274751Y-68675366D01*
X56274751Y-68675366D02*
X56212846Y-68644413D01*
X56212846Y-68644413D02*
X56181893Y-68613461D01*
X56181893Y-68613461D02*
X56150941Y-68551556D01*
X56150941Y-68551556D02*
X56150941Y-68489651D01*
X56150941Y-68489651D02*
X56181893Y-68427747D01*
X56181893Y-68427747D02*
X56212846Y-68396794D01*
X56212846Y-68396794D02*
X56274751Y-68365842D01*
X56274751Y-68365842D02*
X56429512Y-68365842D01*
X56429512Y-68365842D02*
X56522370Y-68396794D01*
X57172370Y-69015842D02*
X56955703Y-68706318D01*
X56800941Y-69015842D02*
X56800941Y-68365842D01*
X56800941Y-68365842D02*
X57048560Y-68365842D01*
X57048560Y-68365842D02*
X57110465Y-68396794D01*
X57110465Y-68396794D02*
X57141418Y-68427747D01*
X57141418Y-68427747D02*
X57172370Y-68489651D01*
X57172370Y-68489651D02*
X57172370Y-68582509D01*
X57172370Y-68582509D02*
X57141418Y-68644413D01*
X57141418Y-68644413D02*
X57110465Y-68675366D01*
X57110465Y-68675366D02*
X57048560Y-68706318D01*
X57048560Y-68706318D02*
X56800941Y-68706318D01*
X57822370Y-68953937D02*
X57791418Y-68984890D01*
X57791418Y-68984890D02*
X57698560Y-69015842D01*
X57698560Y-69015842D02*
X57636656Y-69015842D01*
X57636656Y-69015842D02*
X57543799Y-68984890D01*
X57543799Y-68984890D02*
X57481894Y-68922985D01*
X57481894Y-68922985D02*
X57450941Y-68861080D01*
X57450941Y-68861080D02*
X57419989Y-68737270D01*
X57419989Y-68737270D02*
X57419989Y-68644413D01*
X57419989Y-68644413D02*
X57450941Y-68520604D01*
X57450941Y-68520604D02*
X57481894Y-68458699D01*
X57481894Y-68458699D02*
X57543799Y-68396794D01*
X57543799Y-68396794D02*
X57636656Y-68365842D01*
X57636656Y-68365842D02*
X57698560Y-68365842D01*
X57698560Y-68365842D02*
X57791418Y-68396794D01*
X57791418Y-68396794D02*
X57822370Y-68427747D01*
X58410465Y-69015842D02*
X58100941Y-69015842D01*
X58100941Y-69015842D02*
X58100941Y-68365842D01*
X58627131Y-69015842D02*
X58627131Y-68365842D01*
X58998560Y-69015842D02*
X58719989Y-68644413D01*
X58998560Y-68365842D02*
X58627131Y-68737270D01*
G36*
X57574731Y-63471592D02*
G01*
X57588473Y-63485334D01*
X57606064Y-63520516D01*
X57606064Y-63577964D01*
X57588473Y-63613146D01*
X57574731Y-63626887D01*
X57539550Y-63644478D01*
X57384635Y-63644478D01*
X57384635Y-63454002D01*
X57539550Y-63454002D01*
X57574731Y-63471592D01*
G37*
G36*
X57848921Y-64196859D02*
G01*
X55934636Y-64196859D01*
X55934636Y-63750430D01*
X56027493Y-63750430D01*
X56028678Y-63753687D01*
X56029732Y-63768620D01*
X56060684Y-63892430D01*
X56062672Y-63895374D01*
X56066363Y-63907781D01*
X56097316Y-63969686D01*
X56098505Y-63970811D01*
X56111365Y-63989178D01*
X56173270Y-64051083D01*
X56177333Y-64052977D01*
X56179681Y-64056799D01*
X56202586Y-64069201D01*
X56295443Y-64100153D01*
X56297077Y-64100108D01*
X56319160Y-64104002D01*
X56381064Y-64104002D01*
X56382602Y-64103441D01*
X56404781Y-64100153D01*
X56497639Y-64069201D01*
X56501150Y-64066413D01*
X56505619Y-64066023D01*
X56526956Y-64051082D01*
X56549035Y-64029002D01*
X56708445Y-64029002D01*
X56715108Y-64047310D01*
X56718493Y-64066502D01*
X56723677Y-64070852D01*
X56725992Y-64077211D01*
X56742865Y-64086953D01*
X56757793Y-64099479D01*
X56767535Y-64101196D01*
X56770421Y-64102863D01*
X56773703Y-64102284D01*
X56783445Y-64104002D01*
X57092969Y-64104002D01*
X57141178Y-64086455D01*
X57166830Y-64042026D01*
X57164533Y-64029002D01*
X57234635Y-64029002D01*
X57252182Y-64077211D01*
X57296611Y-64102863D01*
X57347135Y-64093954D01*
X57380112Y-64054654D01*
X57384635Y-64029002D01*
X57384635Y-63794478D01*
X57425348Y-63794478D01*
X57619621Y-64072011D01*
X57661643Y-64101443D01*
X57712751Y-64096980D01*
X57749033Y-64060708D01*
X57753511Y-64009601D01*
X57742506Y-63985992D01*
X57599764Y-63782075D01*
X57652700Y-63755608D01*
X57653825Y-63754418D01*
X57672192Y-63741559D01*
X57703145Y-63710606D01*
X57703836Y-63709124D01*
X57717194Y-63691114D01*
X57748146Y-63629210D01*
X57748658Y-63624756D01*
X57751541Y-63621321D01*
X57756064Y-63595669D01*
X57756064Y-63502811D01*
X57754530Y-63498599D01*
X57755573Y-63494237D01*
X57748146Y-63469270D01*
X57717194Y-63407366D01*
X57716004Y-63406240D01*
X57703145Y-63387874D01*
X57672192Y-63356921D01*
X57670710Y-63356230D01*
X57652700Y-63342872D01*
X57590795Y-63311920D01*
X57586341Y-63311407D01*
X57582906Y-63308525D01*
X57557254Y-63304002D01*
X57309635Y-63304002D01*
X57291326Y-63310665D01*
X57272135Y-63314050D01*
X57267784Y-63319234D01*
X57261426Y-63321549D01*
X57251683Y-63338422D01*
X57239158Y-63353350D01*
X57237440Y-63363092D01*
X57235774Y-63365978D01*
X57236352Y-63369260D01*
X57234635Y-63379002D01*
X57234635Y-64029002D01*
X57164533Y-64029002D01*
X57157921Y-63991502D01*
X57118621Y-63958525D01*
X57092969Y-63954002D01*
X56858445Y-63954002D01*
X56858445Y-63379002D01*
X56840898Y-63330793D01*
X56796469Y-63305141D01*
X56745945Y-63314050D01*
X56712968Y-63353350D01*
X56708445Y-63379002D01*
X56708445Y-64029002D01*
X56549035Y-64029002D01*
X56557908Y-64020129D01*
X56579588Y-63973633D01*
X56566310Y-63924078D01*
X56524284Y-63894652D01*
X56473177Y-63899124D01*
X56451840Y-63914065D01*
X56433407Y-63932498D01*
X56368894Y-63954002D01*
X56331330Y-63954002D01*
X56266816Y-63932497D01*
X56226037Y-63891718D01*
X56204209Y-63848063D01*
X56177493Y-63741196D01*
X56177493Y-63666806D01*
X56204209Y-63559940D01*
X56226037Y-63516285D01*
X56266816Y-63475506D01*
X56331330Y-63454002D01*
X56368894Y-63454002D01*
X56433407Y-63475505D01*
X56451840Y-63493939D01*
X56498336Y-63515621D01*
X56547891Y-63502344D01*
X56577318Y-63460319D01*
X56572848Y-63409212D01*
X56557908Y-63387875D01*
X56526956Y-63356922D01*
X56522892Y-63355026D01*
X56520544Y-63351205D01*
X56497639Y-63338803D01*
X56404781Y-63307851D01*
X56403146Y-63307895D01*
X56381064Y-63304002D01*
X56319160Y-63304002D01*
X56317621Y-63304562D01*
X56295443Y-63307851D01*
X56202586Y-63338803D01*
X56199075Y-63341589D01*
X56194607Y-63341980D01*
X56173270Y-63356921D01*
X56111365Y-63418826D01*
X56110672Y-63420310D01*
X56097316Y-63438318D01*
X56066363Y-63500223D01*
X56065956Y-63503751D01*
X56060684Y-63515574D01*
X56029732Y-63639383D01*
X56030092Y-63642831D01*
X56027493Y-63657573D01*
X56027493Y-63750430D01*
X55934636Y-63750430D01*
X55934636Y-63211145D01*
X57848921Y-63211145D01*
X57848921Y-64196859D01*
G37*
X56473922Y-55808604D02*
X56412017Y-55777652D01*
X56412017Y-55777652D02*
X56319160Y-55777652D01*
X56319160Y-55777652D02*
X56226303Y-55808604D01*
X56226303Y-55808604D02*
X56164398Y-55870509D01*
X56164398Y-55870509D02*
X56133445Y-55932414D01*
X56133445Y-55932414D02*
X56102493Y-56056223D01*
X56102493Y-56056223D02*
X56102493Y-56149080D01*
X56102493Y-56149080D02*
X56133445Y-56272890D01*
X56133445Y-56272890D02*
X56164398Y-56334795D01*
X56164398Y-56334795D02*
X56226303Y-56396700D01*
X56226303Y-56396700D02*
X56319160Y-56427652D01*
X56319160Y-56427652D02*
X56381064Y-56427652D01*
X56381064Y-56427652D02*
X56473922Y-56396700D01*
X56473922Y-56396700D02*
X56504874Y-56365747D01*
X56504874Y-56365747D02*
X56504874Y-56149080D01*
X56504874Y-56149080D02*
X56381064Y-56149080D01*
X56783445Y-56427652D02*
X56783445Y-55777652D01*
X56783445Y-55777652D02*
X57154874Y-56427652D01*
X57154874Y-56427652D02*
X57154874Y-55777652D01*
X57464397Y-56427652D02*
X57464397Y-55777652D01*
X57464397Y-55777652D02*
X57619159Y-55777652D01*
X57619159Y-55777652D02*
X57712016Y-55808604D01*
X57712016Y-55808604D02*
X57773921Y-55870509D01*
X57773921Y-55870509D02*
X57804874Y-55932414D01*
X57804874Y-55932414D02*
X57835826Y-56056223D01*
X57835826Y-56056223D02*
X57835826Y-56149080D01*
X57835826Y-56149080D02*
X57804874Y-56272890D01*
X57804874Y-56272890D02*
X57773921Y-56334795D01*
X57773921Y-56334795D02*
X57712016Y-56396700D01*
X57712016Y-56396700D02*
X57619159Y-56427652D01*
X57619159Y-56427652D02*
X57464397Y-56427652D01*
G36*
X56398541Y-71110242D02*
G01*
X56437151Y-71148852D01*
X56460826Y-71243552D01*
X56460826Y-71441751D01*
X56437151Y-71536451D01*
X56398541Y-71575061D01*
X56363360Y-71592652D01*
X56274960Y-71592652D01*
X56239776Y-71575060D01*
X56201167Y-71536451D01*
X56177493Y-71441751D01*
X56177493Y-71243552D01*
X56201167Y-71148852D01*
X56239776Y-71110243D01*
X56274960Y-71092652D01*
X56363360Y-71092652D01*
X56398541Y-71110242D01*
G37*
G36*
X57290639Y-71835509D02*
G01*
X55934636Y-71835509D01*
X55934636Y-71450985D01*
X56027493Y-71450985D01*
X56028678Y-71454242D01*
X56029732Y-71469175D01*
X56060684Y-71592985D01*
X56064826Y-71599118D01*
X56065472Y-71606491D01*
X56080412Y-71627828D01*
X56142317Y-71689733D01*
X56143798Y-71690423D01*
X56161809Y-71703782D01*
X56223715Y-71734734D01*
X56228167Y-71735246D01*
X56231603Y-71738129D01*
X56257255Y-71742652D01*
X56381064Y-71742652D01*
X56385276Y-71741118D01*
X56389638Y-71742161D01*
X56414605Y-71734734D01*
X56476510Y-71703782D01*
X56477635Y-71702592D01*
X56496002Y-71689733D01*
X56518083Y-71667652D01*
X56739397Y-71667652D01*
X56746060Y-71685960D01*
X56749445Y-71705152D01*
X56754629Y-71709502D01*
X56756944Y-71715861D01*
X56773817Y-71725603D01*
X56788745Y-71738129D01*
X56798487Y-71739846D01*
X56801373Y-71741513D01*
X56804655Y-71740934D01*
X56814397Y-71742652D01*
X57123921Y-71742652D01*
X57172130Y-71725105D01*
X57197782Y-71680676D01*
X57188873Y-71630152D01*
X57149573Y-71597175D01*
X57123921Y-71592652D01*
X56889397Y-71592652D01*
X56889397Y-71402176D01*
X57031064Y-71402176D01*
X57079273Y-71384629D01*
X57104925Y-71340200D01*
X57096016Y-71289676D01*
X57056716Y-71256699D01*
X57031064Y-71252176D01*
X56889397Y-71252176D01*
X56889397Y-71092652D01*
X57123921Y-71092652D01*
X57172130Y-71075105D01*
X57197782Y-71030676D01*
X57188873Y-70980152D01*
X57149573Y-70947175D01*
X57123921Y-70942652D01*
X56814397Y-70942652D01*
X56796088Y-70949315D01*
X56776897Y-70952700D01*
X56772546Y-70957884D01*
X56766188Y-70960199D01*
X56756445Y-70977072D01*
X56743920Y-70992000D01*
X56742202Y-71001742D01*
X56740536Y-71004628D01*
X56741114Y-71007910D01*
X56739397Y-71017652D01*
X56739397Y-71667652D01*
X56518083Y-71667652D01*
X56557907Y-71627828D01*
X56561034Y-71621120D01*
X56567025Y-71616774D01*
X56577635Y-71592985D01*
X56608587Y-71469175D01*
X56608226Y-71465726D01*
X56610826Y-71450985D01*
X56610826Y-71234319D01*
X56609640Y-71231061D01*
X56608587Y-71216129D01*
X56577635Y-71092319D01*
X56573493Y-71086186D01*
X56572848Y-71078813D01*
X56557907Y-71057476D01*
X56496002Y-70995571D01*
X56494520Y-70994880D01*
X56476510Y-70981522D01*
X56414605Y-70950570D01*
X56410151Y-70950057D01*
X56406716Y-70947175D01*
X56381064Y-70942652D01*
X56257255Y-70942652D01*
X56253042Y-70944185D01*
X56248681Y-70943143D01*
X56223715Y-70950570D01*
X56161809Y-70981522D01*
X56160685Y-70982708D01*
X56142317Y-70995571D01*
X56080412Y-71057476D01*
X56077284Y-71064183D01*
X56071294Y-71068530D01*
X56060684Y-71092319D01*
X56029732Y-71216129D01*
X56030092Y-71219577D01*
X56027493Y-71234319D01*
X56027493Y-71450985D01*
X55934636Y-71450985D01*
X55934636Y-70849795D01*
X57290639Y-70849795D01*
X57290639Y-71835509D01*
G37*
X56102493Y-61476700D02*
X56195350Y-61507652D01*
X56195350Y-61507652D02*
X56350112Y-61507652D01*
X56350112Y-61507652D02*
X56412017Y-61476700D01*
X56412017Y-61476700D02*
X56442969Y-61445747D01*
X56442969Y-61445747D02*
X56473922Y-61383842D01*
X56473922Y-61383842D02*
X56473922Y-61321938D01*
X56473922Y-61321938D02*
X56442969Y-61260033D01*
X56442969Y-61260033D02*
X56412017Y-61229080D01*
X56412017Y-61229080D02*
X56350112Y-61198128D01*
X56350112Y-61198128D02*
X56226303Y-61167176D01*
X56226303Y-61167176D02*
X56164398Y-61136223D01*
X56164398Y-61136223D02*
X56133445Y-61105271D01*
X56133445Y-61105271D02*
X56102493Y-61043366D01*
X56102493Y-61043366D02*
X56102493Y-60981461D01*
X56102493Y-60981461D02*
X56133445Y-60919557D01*
X56133445Y-60919557D02*
X56164398Y-60888604D01*
X56164398Y-60888604D02*
X56226303Y-60857652D01*
X56226303Y-60857652D02*
X56381064Y-60857652D01*
X56381064Y-60857652D02*
X56473922Y-60888604D01*
X56752493Y-61167176D02*
X56969160Y-61167176D01*
X57062017Y-61507652D02*
X56752493Y-61507652D01*
X56752493Y-61507652D02*
X56752493Y-60857652D01*
X56752493Y-60857652D02*
X57062017Y-60857652D01*
X57712017Y-61507652D02*
X57495350Y-61198128D01*
X57340588Y-61507652D02*
X57340588Y-60857652D01*
X57340588Y-60857652D02*
X57588207Y-60857652D01*
X57588207Y-60857652D02*
X57650112Y-60888604D01*
X57650112Y-60888604D02*
X57681065Y-60919557D01*
X57681065Y-60919557D02*
X57712017Y-60981461D01*
X57712017Y-60981461D02*
X57712017Y-61074319D01*
X57712017Y-61074319D02*
X57681065Y-61136223D01*
X57681065Y-61136223D02*
X57650112Y-61167176D01*
X57650112Y-61167176D02*
X57588207Y-61198128D01*
X57588207Y-61198128D02*
X57340588Y-61198128D01*
X58114398Y-60857652D02*
X58238207Y-60857652D01*
X58238207Y-60857652D02*
X58300112Y-60888604D01*
X58300112Y-60888604D02*
X58362017Y-60950509D01*
X58362017Y-60950509D02*
X58392969Y-61074319D01*
X58392969Y-61074319D02*
X58392969Y-61290985D01*
X58392969Y-61290985D02*
X58362017Y-61414795D01*
X58362017Y-61414795D02*
X58300112Y-61476700D01*
X58300112Y-61476700D02*
X58238207Y-61507652D01*
X58238207Y-61507652D02*
X58114398Y-61507652D01*
X58114398Y-61507652D02*
X58052493Y-61476700D01*
X58052493Y-61476700D02*
X57990588Y-61414795D01*
X57990588Y-61414795D02*
X57959636Y-61290985D01*
X57959636Y-61290985D02*
X57959636Y-61074319D01*
X57959636Y-61074319D02*
X57990588Y-60950509D01*
X57990588Y-60950509D02*
X58052493Y-60888604D01*
X58052493Y-60888604D02*
X58114398Y-60857652D01*
X58671540Y-60857652D02*
X58671540Y-61383842D01*
X58671540Y-61383842D02*
X58702493Y-61445747D01*
X58702493Y-61445747D02*
X58733445Y-61476700D01*
X58733445Y-61476700D02*
X58795350Y-61507652D01*
X58795350Y-61507652D02*
X58919159Y-61507652D01*
X58919159Y-61507652D02*
X58981064Y-61476700D01*
X58981064Y-61476700D02*
X59012017Y-61445747D01*
X59012017Y-61445747D02*
X59042969Y-61383842D01*
X59042969Y-61383842D02*
X59042969Y-60857652D01*
X59259635Y-60857652D02*
X59631064Y-60857652D01*
X59445350Y-61507652D02*
X59445350Y-60857652D01*
X54056666Y-75222902D02*
X53839999Y-74913378D01*
X53685237Y-75222902D02*
X53685237Y-74572902D01*
X53685237Y-74572902D02*
X53932856Y-74572902D01*
X53932856Y-74572902D02*
X53994761Y-74603854D01*
X53994761Y-74603854D02*
X54025714Y-74634807D01*
X54025714Y-74634807D02*
X54056666Y-74696711D01*
X54056666Y-74696711D02*
X54056666Y-74789569D01*
X54056666Y-74789569D02*
X54025714Y-74851473D01*
X54025714Y-74851473D02*
X53994761Y-74882426D01*
X53994761Y-74882426D02*
X53932856Y-74913378D01*
X53932856Y-74913378D02*
X53685237Y-74913378D01*
X54428095Y-74851473D02*
X54366190Y-74820521D01*
X54366190Y-74820521D02*
X54335237Y-74789569D01*
X54335237Y-74789569D02*
X54304285Y-74727664D01*
X54304285Y-74727664D02*
X54304285Y-74696711D01*
X54304285Y-74696711D02*
X54335237Y-74634807D01*
X54335237Y-74634807D02*
X54366190Y-74603854D01*
X54366190Y-74603854D02*
X54428095Y-74572902D01*
X54428095Y-74572902D02*
X54551904Y-74572902D01*
X54551904Y-74572902D02*
X54613809Y-74603854D01*
X54613809Y-74603854D02*
X54644761Y-74634807D01*
X54644761Y-74634807D02*
X54675714Y-74696711D01*
X54675714Y-74696711D02*
X54675714Y-74727664D01*
X54675714Y-74727664D02*
X54644761Y-74789569D01*
X54644761Y-74789569D02*
X54613809Y-74820521D01*
X54613809Y-74820521D02*
X54551904Y-74851473D01*
X54551904Y-74851473D02*
X54428095Y-74851473D01*
X54428095Y-74851473D02*
X54366190Y-74882426D01*
X54366190Y-74882426D02*
X54335237Y-74913378D01*
X54335237Y-74913378D02*
X54304285Y-74975283D01*
X54304285Y-74975283D02*
X54304285Y-75099092D01*
X54304285Y-75099092D02*
X54335237Y-75160997D01*
X54335237Y-75160997D02*
X54366190Y-75191950D01*
X54366190Y-75191950D02*
X54428095Y-75222902D01*
X54428095Y-75222902D02*
X54551904Y-75222902D01*
X54551904Y-75222902D02*
X54613809Y-75191950D01*
X54613809Y-75191950D02*
X54644761Y-75160997D01*
X54644761Y-75160997D02*
X54675714Y-75099092D01*
X54675714Y-75099092D02*
X54675714Y-74975283D01*
X54675714Y-74975283D02*
X54644761Y-74913378D01*
X54644761Y-74913378D02*
X54613809Y-74882426D01*
X54613809Y-74882426D02*
X54551904Y-74851473D01*
X54056666Y-54742902D02*
X53839999Y-54433378D01*
X53685237Y-54742902D02*
X53685237Y-54092902D01*
X53685237Y-54092902D02*
X53932856Y-54092902D01*
X53932856Y-54092902D02*
X53994761Y-54123854D01*
X53994761Y-54123854D02*
X54025714Y-54154807D01*
X54025714Y-54154807D02*
X54056666Y-54216711D01*
X54056666Y-54216711D02*
X54056666Y-54309569D01*
X54056666Y-54309569D02*
X54025714Y-54371473D01*
X54025714Y-54371473D02*
X53994761Y-54402426D01*
X53994761Y-54402426D02*
X53932856Y-54433378D01*
X53932856Y-54433378D02*
X53685237Y-54433378D01*
X54675714Y-54742902D02*
X54304285Y-54742902D01*
X54489999Y-54742902D02*
X54489999Y-54092902D01*
X54489999Y-54092902D02*
X54428095Y-54185759D01*
X54428095Y-54185759D02*
X54366190Y-54247664D01*
X54366190Y-54247664D02*
X54304285Y-54278616D01*
D12*
%TO.C,R10*%
X62752500Y-49767258D02*
X62752500Y-49292742D01*
X61707500Y-49767258D02*
X61707500Y-49292742D01*
%TO.C,R9*%
X61707500Y-45482742D02*
X61707500Y-45957258D01*
X62752500Y-45482742D02*
X62752500Y-45957258D01*
%TO.C,C3*%
X46635580Y-46230000D02*
X46354420Y-46230000D01*
X46635580Y-45210000D02*
X46354420Y-45210000D01*
%TO.C,D7*%
X51497500Y-71855000D02*
X51497500Y-70385000D01*
X51497500Y-70385000D02*
X49212500Y-70385000D01*
X49212500Y-71855000D02*
X51497500Y-71855000D01*
%TO.C,C1*%
X46635580Y-51250000D02*
X46354420Y-51250000D01*
X46635580Y-50230000D02*
X46354420Y-50230000D01*
%TO.C,D2*%
X51497500Y-59155000D02*
X51497500Y-57685000D01*
X51497500Y-57685000D02*
X49212500Y-57685000D01*
X49212500Y-59155000D02*
X51497500Y-59155000D01*
%TO.C,R8*%
X53927742Y-73137500D02*
X54402258Y-73137500D01*
X53927742Y-74182500D02*
X54402258Y-74182500D01*
%TO.C,J1*%
X44390000Y-54550000D02*
X45720000Y-54550000D01*
X44390000Y-55880000D02*
X44390000Y-54550000D01*
X44390000Y-57150000D02*
X44390000Y-74990000D01*
X44390000Y-57150000D02*
X47050000Y-57150000D01*
X44390000Y-74990000D02*
X47050000Y-74990000D01*
X47050000Y-57150000D02*
X47050000Y-74990000D01*
%TO.C,D6*%
X51497500Y-69315000D02*
X51497500Y-67845000D01*
X51497500Y-67845000D02*
X49212500Y-67845000D01*
X49212500Y-69315000D02*
X51497500Y-69315000D01*
%TO.C,C2*%
X46635580Y-48740000D02*
X46354420Y-48740000D01*
X46635580Y-47720000D02*
X46354420Y-47720000D01*
%TO.C,R5*%
X53927742Y-65517500D02*
X54402258Y-65517500D01*
X53927742Y-66562500D02*
X54402258Y-66562500D01*
%TO.C,R2*%
X53927742Y-57897500D02*
X54402258Y-57897500D01*
X53927742Y-58942500D02*
X54402258Y-58942500D01*
%TO.C,R3*%
X53927742Y-60437500D02*
X54402258Y-60437500D01*
X53927742Y-61482500D02*
X54402258Y-61482500D01*
%TO.C,R4*%
X53927742Y-62977500D02*
X54402258Y-62977500D01*
X53927742Y-64022500D02*
X54402258Y-64022500D01*
%TO.C,R6*%
X53927742Y-68057500D02*
X54402258Y-68057500D01*
X53927742Y-69102500D02*
X54402258Y-69102500D01*
%TO.C,J2*%
X59630000Y-54550000D02*
X60960000Y-54550000D01*
X59630000Y-55880000D02*
X59630000Y-54550000D01*
X59630000Y-57150000D02*
X59630000Y-74990000D01*
X59630000Y-57150000D02*
X62290000Y-57150000D01*
X59630000Y-74990000D02*
X62290000Y-74990000D01*
X62290000Y-57150000D02*
X62290000Y-74990000D01*
%TO.C,D1*%
X51497500Y-56615000D02*
X51497500Y-55145000D01*
X51497500Y-55145000D02*
X49212500Y-55145000D01*
X49212500Y-56615000D02*
X51497500Y-56615000D01*
%TO.C,R7*%
X53927742Y-70597500D02*
X54402258Y-70597500D01*
X53927742Y-71642500D02*
X54402258Y-71642500D01*
%TO.C,D3*%
X51497500Y-61695000D02*
X51497500Y-60225000D01*
X51497500Y-60225000D02*
X49212500Y-60225000D01*
X49212500Y-61695000D02*
X51497500Y-61695000D01*
%TO.C,D8*%
X51497500Y-74395000D02*
X51497500Y-72925000D01*
X51497500Y-72925000D02*
X49212500Y-72925000D01*
X49212500Y-74395000D02*
X51497500Y-74395000D01*
%TO.C,D5*%
X51497500Y-66775000D02*
X51497500Y-65305000D01*
X51497500Y-65305000D02*
X49212500Y-65305000D01*
X49212500Y-66775000D02*
X51497500Y-66775000D01*
%TO.C,U1*%
X50620000Y-50645000D02*
X50900000Y-50645000D01*
X50900000Y-50645000D02*
X50900000Y-52310000D01*
X61140000Y-50645000D02*
X60860000Y-50645000D01*
X50620000Y-48260000D02*
X50620000Y-50645000D01*
X50620000Y-48260000D02*
X50620000Y-45875000D01*
X61140000Y-48260000D02*
X61140000Y-50645000D01*
X61140000Y-48260000D02*
X61140000Y-45875000D01*
X50620000Y-45875000D02*
X50900000Y-45875000D01*
X61140000Y-45875000D02*
X60860000Y-45875000D01*
%TO.C,R1*%
X53927742Y-55357500D02*
X54402258Y-55357500D01*
X53927742Y-56402500D02*
X54402258Y-56402500D01*
%TO.C,D4*%
X51497500Y-64235000D02*
X51497500Y-62765000D01*
X51497500Y-62765000D02*
X49212500Y-62765000D01*
X49212500Y-64235000D02*
X51497500Y-64235000D01*
%TD*%
%LPC*%
D13*
%TO.C,R10*%
X62230000Y-50355000D03*
X62230000Y-48705000D03*
%TD*%
D14*
%TO.C,R9*%
X62230000Y-44895000D03*
X62230000Y-46545000D03*
%TD*%
D15*
%TO.C,C3*%
X47270000Y-45720000D03*
X45720000Y-45720000D03*
%TD*%
D16*
%TO.C,D7*%
X50800000Y-71120000D03*
X49225000Y-71120000D03*
%TD*%
D15*
%TO.C,C1*%
X47270000Y-50740000D03*
X45720000Y-50740000D03*
%TD*%
D16*
%TO.C,D2*%
X50800000Y-58420000D03*
X49225000Y-58420000D03*
%TD*%
D17*
%TO.C,R8*%
X53340000Y-73660000D03*
X54990000Y-73660000D03*
%TD*%
D18*
%TO.C,J1*%
X45720000Y-55880000D03*
D19*
X45720000Y-58420000D03*
X45720000Y-60960000D03*
X45720000Y-63500000D03*
X45720000Y-66040000D03*
X45720000Y-68580000D03*
X45720000Y-71120000D03*
X45720000Y-73660000D03*
%TD*%
D16*
%TO.C,D6*%
X50800000Y-68580000D03*
X49225000Y-68580000D03*
%TD*%
D15*
%TO.C,C2*%
X47270000Y-48230000D03*
X45720000Y-48230000D03*
%TD*%
D17*
%TO.C,R5*%
X53340000Y-66040000D03*
X54990000Y-66040000D03*
%TD*%
%TO.C,R2*%
X53340000Y-58420000D03*
X54990000Y-58420000D03*
%TD*%
%TO.C,R3*%
X53340000Y-60960000D03*
X54990000Y-60960000D03*
%TD*%
%TO.C,R4*%
X53340000Y-63500000D03*
X54990000Y-63500000D03*
%TD*%
%TO.C,R6*%
X53340000Y-68580000D03*
X54990000Y-68580000D03*
%TD*%
D18*
%TO.C,J2*%
X60960000Y-55880000D03*
D19*
X60960000Y-58420000D03*
X60960000Y-60960000D03*
X60960000Y-63500000D03*
X60960000Y-66040000D03*
X60960000Y-68580000D03*
X60960000Y-71120000D03*
X60960000Y-73660000D03*
%TD*%
D16*
%TO.C,D1*%
X50800000Y-55880000D03*
X49225000Y-55880000D03*
%TD*%
D17*
%TO.C,R7*%
X53340000Y-71120000D03*
X54990000Y-71120000D03*
%TD*%
D16*
%TO.C,D3*%
X50800000Y-60960000D03*
X49225000Y-60960000D03*
%TD*%
%TO.C,D8*%
X50800000Y-73660000D03*
X49225000Y-73660000D03*
%TD*%
%TO.C,D5*%
X50800000Y-66040000D03*
X49225000Y-66040000D03*
%TD*%
D20*
%TO.C,U1*%
X51435000Y-51510000D03*
X52705000Y-51510000D03*
X53975000Y-51510000D03*
X55245000Y-51510000D03*
X56515000Y-51510000D03*
X57785000Y-51510000D03*
X59055000Y-51510000D03*
X60325000Y-51510000D03*
X60325000Y-45010000D03*
X59055000Y-45010000D03*
X57785000Y-45010000D03*
X56515000Y-45010000D03*
X55245000Y-45010000D03*
X53975000Y-45010000D03*
X52705000Y-45010000D03*
X51435000Y-45010000D03*
%TD*%
D17*
%TO.C,R1*%
X53340000Y-55880000D03*
X54990000Y-55880000D03*
%TD*%
D16*
%TO.C,D4*%
X50800000Y-63500000D03*
X49225000Y-63500000D03*
%TD*%
%LPD*%
M02*
