%TF.GenerationSoftware,KiCad,Pcbnew,7.0.8*%
%TF.CreationDate,2023-10-11T21:25:33+02:00*%
%TF.ProjectId,test_sr,74657374-5f73-4722-9e6b-696361645f70,rev?*%
%TF.SameCoordinates,Original*%
%TF.FileFunction,Copper,L2,Inr*%
%TF.FilePolarity,Positive*%
%FSLAX46Y46*%
G04 Gerber Fmt 4.6, Leading zero omitted, Abs format (unit mm)*
G04 Created by KiCad (PCBNEW 7.0.8) date 2023-10-11 21:25:33*
%MOMM*%
%LPD*%
G01*
G04 APERTURE LIST*
%TA.AperFunction,ComponentPad*%
%ADD10R,1.700000X1.700000*%
%TD*%
%TA.AperFunction,ComponentPad*%
%ADD11O,1.700000X1.700000*%
%TD*%
%TA.AperFunction,ViaPad*%
%ADD12C,0.800000*%
%TD*%
G04 APERTURE END LIST*
D10*
%TO.N,/QA*%
%TO.C,J1*%
X45720000Y-55880000D03*
D11*
%TO.N,/QB*%
X45720000Y-58420000D03*
%TO.N,/QC*%
X45720000Y-60960000D03*
%TO.N,/QD*%
X45720000Y-63500000D03*
%TO.N,/QE*%
X45720000Y-66040000D03*
%TO.N,/QF*%
X45720000Y-68580000D03*
%TO.N,/QG*%
X45720000Y-71120000D03*
%TO.N,/QH*%
X45720000Y-73660000D03*
%TD*%
D10*
%TO.N,GND*%
%TO.C,J2*%
X60960000Y-55880000D03*
D11*
%TO.N,+3.3V*%
X60960000Y-58420000D03*
%TO.N,/SEROUT*%
X60960000Y-60960000D03*
%TO.N,/N_SR_CLR*%
X60960000Y-63500000D03*
%TO.N,/R_CLK*%
X60960000Y-66040000D03*
%TO.N,/SR_CLK*%
X60960000Y-68580000D03*
%TO.N,/N_OE*%
X60960000Y-71120000D03*
%TO.N,/SER*%
X60960000Y-73660000D03*
%TD*%
D12*
%TO.N,GND*%
X59436000Y-55118000D03*
X60452000Y-53594000D03*
X61468000Y-53594000D03*
%TO.N,+3.3V*%
X57112500Y-59690000D03*
X57949500Y-59690000D03*
X57949500Y-57150000D03*
X57112500Y-57150000D03*
X59436000Y-59690000D03*
X59436000Y-57150000D03*
X59436000Y-58420000D03*
X47244000Y-49530000D03*
X47244000Y-46990000D03*
%TO.N,/SEROUT*%
X61033149Y-46916850D03*
%TO.N,GND*%
X62230000Y-47625000D03*
X54990000Y-67310000D03*
X54990000Y-62230000D03*
X54990000Y-59690000D03*
X54990000Y-64770000D03*
X59690000Y-49530000D03*
X45720000Y-49530000D03*
X45720000Y-46990000D03*
X54990000Y-69850000D03*
X54990000Y-72390000D03*
%TO.N,+3.3V*%
X49530000Y-45720000D03*
%TO.N,/QA*%
X49530000Y-46990000D03*
%TO.N,/QB*%
X49530000Y-48260000D03*
%TO.N,/QC*%
X50800000Y-48260000D03*
%TO.N,/QD*%
X52070000Y-48260000D03*
%TO.N,/QE*%
X54610000Y-48895000D03*
%TO.N,/QF*%
X55880000Y-53340000D03*
%TO.N,/QG*%
X57150000Y-53340000D03*
%TO.N,/QH*%
X58420000Y-53340000D03*
%TO.N,/N_SR_CLR*%
X62020750Y-51771250D03*
%TO.N,/R_CLK*%
X59690000Y-48260000D03*
%TO.N,/N_OE*%
X58420000Y-48260000D03*
%TD*%
%TA.AperFunction,Conductor*%
%TO.N,+3.3V*%
G36*
X63442539Y-43200185D02*
G01*
X63488294Y-43252989D01*
X63499500Y-43304500D01*
X63499500Y-76075500D01*
X63479815Y-76142539D01*
X63427011Y-76188294D01*
X63375500Y-76199500D01*
X43304500Y-76199500D01*
X43237461Y-76179815D01*
X43191706Y-76127011D01*
X43180500Y-76075500D01*
X43180500Y-73660000D01*
X44364341Y-73660000D01*
X44384936Y-73895403D01*
X44384938Y-73895413D01*
X44446094Y-74123655D01*
X44446096Y-74123659D01*
X44446097Y-74123663D01*
X44545965Y-74337830D01*
X44545967Y-74337834D01*
X44654281Y-74492521D01*
X44681505Y-74531401D01*
X44848599Y-74698495D01*
X44945384Y-74766265D01*
X45042165Y-74834032D01*
X45042167Y-74834033D01*
X45042170Y-74834035D01*
X45256337Y-74933903D01*
X45484592Y-74995063D01*
X45672918Y-75011539D01*
X45719999Y-75015659D01*
X45720000Y-75015659D01*
X45720001Y-75015659D01*
X45759234Y-75012226D01*
X45955408Y-74995063D01*
X46183663Y-74933903D01*
X46397830Y-74834035D01*
X46591401Y-74698495D01*
X46758495Y-74531401D01*
X46894035Y-74337830D01*
X46993903Y-74123663D01*
X47055063Y-73895408D01*
X47075659Y-73660000D01*
X47055063Y-73424592D01*
X46993903Y-73196337D01*
X46894035Y-72982171D01*
X46852055Y-72922216D01*
X46758494Y-72788597D01*
X46591402Y-72621506D01*
X46591396Y-72621501D01*
X46405842Y-72491575D01*
X46362217Y-72436998D01*
X46357352Y-72390000D01*
X54084540Y-72390000D01*
X54104326Y-72578256D01*
X54104327Y-72578259D01*
X54162818Y-72758277D01*
X54162821Y-72758284D01*
X54257467Y-72922216D01*
X54311451Y-72982171D01*
X54384129Y-73062888D01*
X54537265Y-73174148D01*
X54537270Y-73174151D01*
X54710192Y-73251142D01*
X54710197Y-73251144D01*
X54895354Y-73290500D01*
X54895355Y-73290500D01*
X55084644Y-73290500D01*
X55084646Y-73290500D01*
X55269803Y-73251144D01*
X55442730Y-73174151D01*
X55595871Y-73062888D01*
X55722533Y-72922216D01*
X55817179Y-72758284D01*
X55875674Y-72578256D01*
X55895460Y-72390000D01*
X55875674Y-72201744D01*
X55817179Y-72021716D01*
X55722533Y-71857784D01*
X55595871Y-71717112D01*
X55595870Y-71717111D01*
X55442734Y-71605851D01*
X55442729Y-71605848D01*
X55269807Y-71528857D01*
X55269802Y-71528855D01*
X55124001Y-71497865D01*
X55084646Y-71489500D01*
X54895354Y-71489500D01*
X54862897Y-71496398D01*
X54710197Y-71528855D01*
X54710192Y-71528857D01*
X54537270Y-71605848D01*
X54537265Y-71605851D01*
X54384129Y-71717111D01*
X54257466Y-71857785D01*
X54162821Y-72021715D01*
X54162818Y-72021722D01*
X54104327Y-72201740D01*
X54104326Y-72201744D01*
X54084540Y-72390000D01*
X46357352Y-72390000D01*
X46355023Y-72367500D01*
X46386546Y-72305145D01*
X46405842Y-72288425D01*
X46529635Y-72201744D01*
X46591401Y-72158495D01*
X46758495Y-71991401D01*
X46894035Y-71797830D01*
X46993903Y-71583663D01*
X47055063Y-71355408D01*
X47075659Y-71120000D01*
X47055063Y-70884592D01*
X46993903Y-70656337D01*
X46894035Y-70442171D01*
X46852055Y-70382216D01*
X46758494Y-70248597D01*
X46591402Y-70081506D01*
X46591396Y-70081501D01*
X46405842Y-69951575D01*
X46362217Y-69896998D01*
X46357352Y-69850000D01*
X54084540Y-69850000D01*
X54104326Y-70038256D01*
X54104327Y-70038259D01*
X54162818Y-70218277D01*
X54162821Y-70218284D01*
X54257467Y-70382216D01*
X54311451Y-70442171D01*
X54384129Y-70522888D01*
X54537265Y-70634148D01*
X54537270Y-70634151D01*
X54710192Y-70711142D01*
X54710197Y-70711144D01*
X54895354Y-70750500D01*
X54895355Y-70750500D01*
X55084644Y-70750500D01*
X55084646Y-70750500D01*
X55269803Y-70711144D01*
X55442730Y-70634151D01*
X55595871Y-70522888D01*
X55722533Y-70382216D01*
X55817179Y-70218284D01*
X55875674Y-70038256D01*
X55895460Y-69850000D01*
X55875674Y-69661744D01*
X55817179Y-69481716D01*
X55722533Y-69317784D01*
X55595871Y-69177112D01*
X55595870Y-69177111D01*
X55442734Y-69065851D01*
X55442729Y-69065848D01*
X55269807Y-68988857D01*
X55269802Y-68988855D01*
X55124001Y-68957865D01*
X55084646Y-68949500D01*
X54895354Y-68949500D01*
X54862897Y-68956398D01*
X54710197Y-68988855D01*
X54710192Y-68988857D01*
X54537270Y-69065848D01*
X54537265Y-69065851D01*
X54384129Y-69177111D01*
X54257466Y-69317785D01*
X54162821Y-69481715D01*
X54162818Y-69481722D01*
X54104327Y-69661740D01*
X54104326Y-69661744D01*
X54084540Y-69850000D01*
X46357352Y-69850000D01*
X46355023Y-69827500D01*
X46386546Y-69765145D01*
X46405842Y-69748425D01*
X46529635Y-69661744D01*
X46591401Y-69618495D01*
X46758495Y-69451401D01*
X46894035Y-69257830D01*
X46993903Y-69043663D01*
X47055063Y-68815408D01*
X47075659Y-68580000D01*
X47055063Y-68344592D01*
X46993903Y-68116337D01*
X46894035Y-67902171D01*
X46852055Y-67842216D01*
X46758494Y-67708597D01*
X46591402Y-67541506D01*
X46591396Y-67541501D01*
X46405842Y-67411575D01*
X46362217Y-67356998D01*
X46357352Y-67310000D01*
X54084540Y-67310000D01*
X54104326Y-67498256D01*
X54104327Y-67498259D01*
X54162818Y-67678277D01*
X54162821Y-67678284D01*
X54257467Y-67842216D01*
X54311451Y-67902171D01*
X54384129Y-67982888D01*
X54537265Y-68094148D01*
X54537270Y-68094151D01*
X54710192Y-68171142D01*
X54710197Y-68171144D01*
X54895354Y-68210500D01*
X54895355Y-68210500D01*
X55084644Y-68210500D01*
X55084646Y-68210500D01*
X55269803Y-68171144D01*
X55442730Y-68094151D01*
X55595871Y-67982888D01*
X55722533Y-67842216D01*
X55817179Y-67678284D01*
X55875674Y-67498256D01*
X55895460Y-67310000D01*
X55875674Y-67121744D01*
X55817179Y-66941716D01*
X55722533Y-66777784D01*
X55595871Y-66637112D01*
X55595870Y-66637111D01*
X55442734Y-66525851D01*
X55442729Y-66525848D01*
X55269807Y-66448857D01*
X55269802Y-66448855D01*
X55124001Y-66417865D01*
X55084646Y-66409500D01*
X54895354Y-66409500D01*
X54862897Y-66416398D01*
X54710197Y-66448855D01*
X54710192Y-66448857D01*
X54537270Y-66525848D01*
X54537265Y-66525851D01*
X54384129Y-66637111D01*
X54257466Y-66777785D01*
X54162821Y-66941715D01*
X54162818Y-66941722D01*
X54104327Y-67121740D01*
X54104326Y-67121744D01*
X54084540Y-67310000D01*
X46357352Y-67310000D01*
X46355023Y-67287500D01*
X46386546Y-67225145D01*
X46405842Y-67208425D01*
X46529635Y-67121744D01*
X46591401Y-67078495D01*
X46758495Y-66911401D01*
X46894035Y-66717830D01*
X46993903Y-66503663D01*
X47055063Y-66275408D01*
X47075659Y-66040000D01*
X47055063Y-65804592D01*
X46993903Y-65576337D01*
X46894035Y-65362171D01*
X46852055Y-65302216D01*
X46758494Y-65168597D01*
X46591402Y-65001506D01*
X46591396Y-65001501D01*
X46405842Y-64871575D01*
X46362217Y-64816998D01*
X46357352Y-64770000D01*
X54084540Y-64770000D01*
X54104326Y-64958256D01*
X54104327Y-64958259D01*
X54162818Y-65138277D01*
X54162821Y-65138284D01*
X54257467Y-65302216D01*
X54311451Y-65362171D01*
X54384129Y-65442888D01*
X54537265Y-65554148D01*
X54537270Y-65554151D01*
X54710192Y-65631142D01*
X54710197Y-65631144D01*
X54895354Y-65670500D01*
X54895355Y-65670500D01*
X55084644Y-65670500D01*
X55084646Y-65670500D01*
X55269803Y-65631144D01*
X55442730Y-65554151D01*
X55595871Y-65442888D01*
X55722533Y-65302216D01*
X55817179Y-65138284D01*
X55875674Y-64958256D01*
X55895460Y-64770000D01*
X55875674Y-64581744D01*
X55817179Y-64401716D01*
X55722533Y-64237784D01*
X55595871Y-64097112D01*
X55595870Y-64097111D01*
X55442734Y-63985851D01*
X55442729Y-63985848D01*
X55269807Y-63908857D01*
X55269802Y-63908855D01*
X55124001Y-63877865D01*
X55084646Y-63869500D01*
X54895354Y-63869500D01*
X54862897Y-63876398D01*
X54710197Y-63908855D01*
X54710192Y-63908857D01*
X54537270Y-63985848D01*
X54537265Y-63985851D01*
X54384129Y-64097111D01*
X54257466Y-64237785D01*
X54162821Y-64401715D01*
X54162818Y-64401722D01*
X54104327Y-64581740D01*
X54104326Y-64581744D01*
X54084540Y-64770000D01*
X46357352Y-64770000D01*
X46355023Y-64747500D01*
X46386546Y-64685145D01*
X46405842Y-64668425D01*
X46529635Y-64581744D01*
X46591401Y-64538495D01*
X46758495Y-64371401D01*
X46894035Y-64177830D01*
X46993903Y-63963663D01*
X47055063Y-63735408D01*
X47075659Y-63500000D01*
X47055063Y-63264592D01*
X46993903Y-63036337D01*
X46894035Y-62822171D01*
X46852055Y-62762216D01*
X46758494Y-62628597D01*
X46591402Y-62461506D01*
X46591396Y-62461501D01*
X46405842Y-62331575D01*
X46362217Y-62276998D01*
X46357352Y-62230000D01*
X54084540Y-62230000D01*
X54104326Y-62418256D01*
X54104327Y-62418259D01*
X54162818Y-62598277D01*
X54162821Y-62598284D01*
X54257467Y-62762216D01*
X54311451Y-62822171D01*
X54384129Y-62902888D01*
X54537265Y-63014148D01*
X54537270Y-63014151D01*
X54710192Y-63091142D01*
X54710197Y-63091144D01*
X54895354Y-63130500D01*
X54895355Y-63130500D01*
X55084644Y-63130500D01*
X55084646Y-63130500D01*
X55269803Y-63091144D01*
X55442730Y-63014151D01*
X55595871Y-62902888D01*
X55722533Y-62762216D01*
X55817179Y-62598284D01*
X55875674Y-62418256D01*
X55895460Y-62230000D01*
X55875674Y-62041744D01*
X55817179Y-61861716D01*
X55722533Y-61697784D01*
X55595871Y-61557112D01*
X55595870Y-61557111D01*
X55442734Y-61445851D01*
X55442729Y-61445848D01*
X55269807Y-61368857D01*
X55269802Y-61368855D01*
X55124001Y-61337865D01*
X55084646Y-61329500D01*
X54895354Y-61329500D01*
X54862897Y-61336398D01*
X54710197Y-61368855D01*
X54710192Y-61368857D01*
X54537270Y-61445848D01*
X54537265Y-61445851D01*
X54384129Y-61557111D01*
X54257466Y-61697785D01*
X54162821Y-61861715D01*
X54162818Y-61861722D01*
X54104327Y-62041740D01*
X54104326Y-62041744D01*
X54084540Y-62230000D01*
X46357352Y-62230000D01*
X46355023Y-62207500D01*
X46386546Y-62145145D01*
X46405842Y-62128425D01*
X46529635Y-62041744D01*
X46591401Y-61998495D01*
X46758495Y-61831401D01*
X46894035Y-61637830D01*
X46993903Y-61423663D01*
X47055063Y-61195408D01*
X47075659Y-60960000D01*
X47055063Y-60724592D01*
X46993903Y-60496337D01*
X46894035Y-60282171D01*
X46852055Y-60222216D01*
X46758494Y-60088597D01*
X46591402Y-59921506D01*
X46591396Y-59921501D01*
X46405842Y-59791575D01*
X46362217Y-59736998D01*
X46357352Y-59690000D01*
X54084540Y-59690000D01*
X54104326Y-59878256D01*
X54104327Y-59878259D01*
X54162818Y-60058277D01*
X54162821Y-60058284D01*
X54257467Y-60222216D01*
X54311451Y-60282171D01*
X54384129Y-60362888D01*
X54537265Y-60474148D01*
X54537270Y-60474151D01*
X54710192Y-60551142D01*
X54710197Y-60551144D01*
X54895354Y-60590500D01*
X54895355Y-60590500D01*
X55084644Y-60590500D01*
X55084646Y-60590500D01*
X55269803Y-60551144D01*
X55442730Y-60474151D01*
X55595871Y-60362888D01*
X55722533Y-60222216D01*
X55817179Y-60058284D01*
X55875674Y-59878256D01*
X55895460Y-59690000D01*
X55875674Y-59501744D01*
X55817179Y-59321716D01*
X55722533Y-59157784D01*
X55595871Y-59017112D01*
X55595870Y-59017111D01*
X55442734Y-58905851D01*
X55442729Y-58905848D01*
X55269807Y-58828857D01*
X55269802Y-58828855D01*
X55124001Y-58797865D01*
X55084646Y-58789500D01*
X54895354Y-58789500D01*
X54862897Y-58796398D01*
X54710197Y-58828855D01*
X54710192Y-58828857D01*
X54537270Y-58905848D01*
X54537265Y-58905851D01*
X54384129Y-59017111D01*
X54257466Y-59157785D01*
X54162821Y-59321715D01*
X54162818Y-59321722D01*
X54104327Y-59501740D01*
X54104326Y-59501744D01*
X54084540Y-59690000D01*
X46357352Y-59690000D01*
X46355023Y-59667500D01*
X46386546Y-59605145D01*
X46405842Y-59588425D01*
X46529635Y-59501744D01*
X46591401Y-59458495D01*
X46758495Y-59291401D01*
X46894035Y-59097830D01*
X46993903Y-58883663D01*
X47055063Y-58655408D01*
X47075659Y-58420000D01*
X47055063Y-58184592D01*
X46993903Y-57956337D01*
X46894035Y-57742171D01*
X46758495Y-57548599D01*
X46636567Y-57426671D01*
X46603084Y-57365351D01*
X46608068Y-57295659D01*
X46649939Y-57239725D01*
X46680915Y-57222810D01*
X46812331Y-57173796D01*
X46927546Y-57087546D01*
X47013796Y-56972331D01*
X47064091Y-56837483D01*
X47070500Y-56777873D01*
X47070499Y-55118000D01*
X58530540Y-55118000D01*
X58550326Y-55306256D01*
X58550327Y-55306259D01*
X58608818Y-55486277D01*
X58608821Y-55486284D01*
X58703467Y-55650216D01*
X58830129Y-55790888D01*
X58983265Y-55902148D01*
X58983270Y-55902151D01*
X59156192Y-55979142D01*
X59156197Y-55979144D01*
X59341354Y-56018500D01*
X59341355Y-56018500D01*
X59485500Y-56018500D01*
X59552539Y-56038185D01*
X59598294Y-56090989D01*
X59609500Y-56142500D01*
X59609500Y-56777870D01*
X59609501Y-56777876D01*
X59615908Y-56837483D01*
X59666202Y-56972328D01*
X59666206Y-56972335D01*
X59752452Y-57087544D01*
X59752455Y-57087547D01*
X59867664Y-57173793D01*
X59867671Y-57173797D01*
X59867674Y-57173798D01*
X59999598Y-57223002D01*
X60055531Y-57264873D01*
X60079949Y-57330337D01*
X60065098Y-57398610D01*
X60043947Y-57426865D01*
X59921886Y-57548926D01*
X59786400Y-57742420D01*
X59786399Y-57742422D01*
X59686570Y-57956507D01*
X59686567Y-57956513D01*
X59629364Y-58169999D01*
X59629364Y-58170000D01*
X60526314Y-58170000D01*
X60500507Y-58210156D01*
X60460000Y-58348111D01*
X60460000Y-58491889D01*
X60500507Y-58629844D01*
X60526314Y-58670000D01*
X59629364Y-58670000D01*
X59686567Y-58883486D01*
X59686570Y-58883492D01*
X59786399Y-59097578D01*
X59921894Y-59291082D01*
X60088917Y-59458105D01*
X60274595Y-59588119D01*
X60318219Y-59642696D01*
X60325412Y-59712195D01*
X60293890Y-59774549D01*
X60274595Y-59791269D01*
X60088594Y-59921508D01*
X59921505Y-60088597D01*
X59785965Y-60282169D01*
X59785964Y-60282171D01*
X59686098Y-60496335D01*
X59686094Y-60496344D01*
X59624938Y-60724586D01*
X59624936Y-60724596D01*
X59604341Y-60959999D01*
X59604341Y-60960000D01*
X59624936Y-61195403D01*
X59624938Y-61195413D01*
X59686094Y-61423655D01*
X59686096Y-61423659D01*
X59686097Y-61423663D01*
X59785965Y-61637830D01*
X59785967Y-61637834D01*
X59921501Y-61831395D01*
X59921506Y-61831402D01*
X60088597Y-61998493D01*
X60088603Y-61998498D01*
X60274158Y-62128425D01*
X60317783Y-62183002D01*
X60324977Y-62252500D01*
X60293454Y-62314855D01*
X60274158Y-62331575D01*
X60088597Y-62461505D01*
X59921505Y-62628597D01*
X59785965Y-62822169D01*
X59785964Y-62822171D01*
X59686098Y-63036335D01*
X59686094Y-63036344D01*
X59624938Y-63264586D01*
X59624936Y-63264596D01*
X59604341Y-63499999D01*
X59604341Y-63500000D01*
X59624936Y-63735403D01*
X59624938Y-63735413D01*
X59686094Y-63963655D01*
X59686096Y-63963659D01*
X59686097Y-63963663D01*
X59785965Y-64177830D01*
X59785967Y-64177834D01*
X59921501Y-64371395D01*
X59921506Y-64371402D01*
X60088597Y-64538493D01*
X60088603Y-64538498D01*
X60274158Y-64668425D01*
X60317783Y-64723002D01*
X60324977Y-64792500D01*
X60293454Y-64854855D01*
X60274158Y-64871575D01*
X60088597Y-65001505D01*
X59921505Y-65168597D01*
X59785965Y-65362169D01*
X59785964Y-65362171D01*
X59686098Y-65576335D01*
X59686094Y-65576344D01*
X59624938Y-65804586D01*
X59624936Y-65804596D01*
X59604341Y-66039999D01*
X59604341Y-66040000D01*
X59624936Y-66275403D01*
X59624938Y-66275413D01*
X59686094Y-66503655D01*
X59686096Y-66503659D01*
X59686097Y-66503663D01*
X59785965Y-66717830D01*
X59785967Y-66717834D01*
X59921501Y-66911395D01*
X59921506Y-66911402D01*
X60088597Y-67078493D01*
X60088603Y-67078498D01*
X60274158Y-67208425D01*
X60317783Y-67263002D01*
X60324977Y-67332500D01*
X60293454Y-67394855D01*
X60274158Y-67411575D01*
X60088597Y-67541505D01*
X59921505Y-67708597D01*
X59785965Y-67902169D01*
X59785964Y-67902171D01*
X59686098Y-68116335D01*
X59686094Y-68116344D01*
X59624938Y-68344586D01*
X59624936Y-68344596D01*
X59604341Y-68579999D01*
X59604341Y-68580000D01*
X59624936Y-68815403D01*
X59624938Y-68815413D01*
X59686094Y-69043655D01*
X59686096Y-69043659D01*
X59686097Y-69043663D01*
X59785965Y-69257830D01*
X59785967Y-69257834D01*
X59921501Y-69451395D01*
X59921506Y-69451402D01*
X60088597Y-69618493D01*
X60088603Y-69618498D01*
X60274158Y-69748425D01*
X60317783Y-69803002D01*
X60324977Y-69872500D01*
X60293454Y-69934855D01*
X60274158Y-69951575D01*
X60088597Y-70081505D01*
X59921505Y-70248597D01*
X59785965Y-70442169D01*
X59785964Y-70442171D01*
X59686098Y-70656335D01*
X59686094Y-70656344D01*
X59624938Y-70884586D01*
X59624936Y-70884596D01*
X59604341Y-71119999D01*
X59604341Y-71120000D01*
X59624936Y-71355403D01*
X59624938Y-71355413D01*
X59686094Y-71583655D01*
X59686096Y-71583659D01*
X59686097Y-71583663D01*
X59785965Y-71797830D01*
X59785967Y-71797834D01*
X59921501Y-71991395D01*
X59921506Y-71991402D01*
X60088597Y-72158493D01*
X60088603Y-72158498D01*
X60274158Y-72288425D01*
X60317783Y-72343002D01*
X60324977Y-72412500D01*
X60293454Y-72474855D01*
X60274158Y-72491575D01*
X60088597Y-72621505D01*
X59921505Y-72788597D01*
X59785965Y-72982169D01*
X59785964Y-72982171D01*
X59686098Y-73196335D01*
X59686094Y-73196344D01*
X59624938Y-73424586D01*
X59624936Y-73424596D01*
X59604341Y-73659999D01*
X59604341Y-73660000D01*
X59624936Y-73895403D01*
X59624938Y-73895413D01*
X59686094Y-74123655D01*
X59686096Y-74123659D01*
X59686097Y-74123663D01*
X59785965Y-74337830D01*
X59785967Y-74337834D01*
X59894281Y-74492521D01*
X59921505Y-74531401D01*
X60088599Y-74698495D01*
X60185384Y-74766265D01*
X60282165Y-74834032D01*
X60282167Y-74834033D01*
X60282170Y-74834035D01*
X60496337Y-74933903D01*
X60724592Y-74995063D01*
X60912918Y-75011539D01*
X60959999Y-75015659D01*
X60960000Y-75015659D01*
X60960001Y-75015659D01*
X60999234Y-75012226D01*
X61195408Y-74995063D01*
X61423663Y-74933903D01*
X61637830Y-74834035D01*
X61831401Y-74698495D01*
X61998495Y-74531401D01*
X62134035Y-74337830D01*
X62233903Y-74123663D01*
X62295063Y-73895408D01*
X62315659Y-73660000D01*
X62295063Y-73424592D01*
X62233903Y-73196337D01*
X62134035Y-72982171D01*
X62092055Y-72922216D01*
X61998494Y-72788597D01*
X61831402Y-72621506D01*
X61831396Y-72621501D01*
X61645842Y-72491575D01*
X61602217Y-72436998D01*
X61595023Y-72367500D01*
X61626546Y-72305145D01*
X61645842Y-72288425D01*
X61769635Y-72201744D01*
X61831401Y-72158495D01*
X61998495Y-71991401D01*
X62134035Y-71797830D01*
X62233903Y-71583663D01*
X62295063Y-71355408D01*
X62315659Y-71120000D01*
X62295063Y-70884592D01*
X62233903Y-70656337D01*
X62134035Y-70442171D01*
X62092055Y-70382216D01*
X61998494Y-70248597D01*
X61831402Y-70081506D01*
X61831396Y-70081501D01*
X61645842Y-69951575D01*
X61602217Y-69896998D01*
X61595023Y-69827500D01*
X61626546Y-69765145D01*
X61645842Y-69748425D01*
X61769635Y-69661744D01*
X61831401Y-69618495D01*
X61998495Y-69451401D01*
X62134035Y-69257830D01*
X62233903Y-69043663D01*
X62295063Y-68815408D01*
X62315659Y-68580000D01*
X62295063Y-68344592D01*
X62233903Y-68116337D01*
X62134035Y-67902171D01*
X62092055Y-67842216D01*
X61998494Y-67708597D01*
X61831402Y-67541506D01*
X61831396Y-67541501D01*
X61645842Y-67411575D01*
X61602217Y-67356998D01*
X61595023Y-67287500D01*
X61626546Y-67225145D01*
X61645842Y-67208425D01*
X61769635Y-67121744D01*
X61831401Y-67078495D01*
X61998495Y-66911401D01*
X62134035Y-66717830D01*
X62233903Y-66503663D01*
X62295063Y-66275408D01*
X62315659Y-66040000D01*
X62295063Y-65804592D01*
X62233903Y-65576337D01*
X62134035Y-65362171D01*
X62092055Y-65302216D01*
X61998494Y-65168597D01*
X61831402Y-65001506D01*
X61831396Y-65001501D01*
X61645842Y-64871575D01*
X61602217Y-64816998D01*
X61595023Y-64747500D01*
X61626546Y-64685145D01*
X61645842Y-64668425D01*
X61769635Y-64581744D01*
X61831401Y-64538495D01*
X61998495Y-64371401D01*
X62134035Y-64177830D01*
X62233903Y-63963663D01*
X62295063Y-63735408D01*
X62315659Y-63500000D01*
X62295063Y-63264592D01*
X62233903Y-63036337D01*
X62134035Y-62822171D01*
X62092055Y-62762216D01*
X61998494Y-62628597D01*
X61831402Y-62461506D01*
X61831396Y-62461501D01*
X61645842Y-62331575D01*
X61602217Y-62276998D01*
X61595023Y-62207500D01*
X61626546Y-62145145D01*
X61645842Y-62128425D01*
X61769635Y-62041744D01*
X61831401Y-61998495D01*
X61998495Y-61831401D01*
X62134035Y-61637830D01*
X62233903Y-61423663D01*
X62295063Y-61195408D01*
X62315659Y-60960000D01*
X62295063Y-60724592D01*
X62233903Y-60496337D01*
X62134035Y-60282171D01*
X62092055Y-60222216D01*
X61998494Y-60088597D01*
X61831402Y-59921506D01*
X61831401Y-59921505D01*
X61645405Y-59791269D01*
X61601781Y-59736692D01*
X61594588Y-59667193D01*
X61626110Y-59604839D01*
X61645405Y-59588119D01*
X61831082Y-59458105D01*
X61998105Y-59291082D01*
X62133600Y-59097578D01*
X62233429Y-58883492D01*
X62233432Y-58883486D01*
X62290636Y-58670000D01*
X61393686Y-58670000D01*
X61419493Y-58629844D01*
X61460000Y-58491889D01*
X61460000Y-58348111D01*
X61419493Y-58210156D01*
X61393686Y-58170000D01*
X62290636Y-58170000D01*
X62290635Y-58169999D01*
X62233432Y-57956513D01*
X62233429Y-57956507D01*
X62133600Y-57742422D01*
X62133599Y-57742420D01*
X61998113Y-57548926D01*
X61998108Y-57548920D01*
X61876053Y-57426865D01*
X61842568Y-57365542D01*
X61847552Y-57295850D01*
X61889424Y-57239917D01*
X61920400Y-57223002D01*
X62052331Y-57173796D01*
X62167546Y-57087546D01*
X62253796Y-56972331D01*
X62304091Y-56837483D01*
X62310500Y-56777873D01*
X62310499Y-54982128D01*
X62304091Y-54922517D01*
X62253796Y-54787669D01*
X62253795Y-54787668D01*
X62253793Y-54787664D01*
X62167547Y-54672455D01*
X62167544Y-54672452D01*
X62052335Y-54586206D01*
X62052329Y-54586203D01*
X61992581Y-54563918D01*
X61936648Y-54522046D01*
X61912231Y-54456582D01*
X61927083Y-54388309D01*
X61963029Y-54347419D01*
X62073871Y-54266888D01*
X62200533Y-54126216D01*
X62295179Y-53962284D01*
X62353674Y-53782256D01*
X62373460Y-53594000D01*
X62353674Y-53405744D01*
X62295179Y-53225716D01*
X62200533Y-53061784D01*
X62073871Y-52921112D01*
X62039401Y-52896068D01*
X61996735Y-52840738D01*
X61990756Y-52771125D01*
X62023362Y-52709330D01*
X62084200Y-52674973D01*
X62112286Y-52671750D01*
X62115394Y-52671750D01*
X62115396Y-52671750D01*
X62300553Y-52632394D01*
X62473480Y-52555401D01*
X62626621Y-52444138D01*
X62753283Y-52303466D01*
X62847929Y-52139534D01*
X62906424Y-51959506D01*
X62926210Y-51771250D01*
X62906424Y-51582994D01*
X62847929Y-51402966D01*
X62753283Y-51239034D01*
X62626621Y-51098362D01*
X62626620Y-51098361D01*
X62473484Y-50987101D01*
X62473479Y-50987098D01*
X62300557Y-50910107D01*
X62300552Y-50910105D01*
X62154751Y-50879115D01*
X62115396Y-50870750D01*
X61926104Y-50870750D01*
X61893647Y-50877648D01*
X61740947Y-50910105D01*
X61740942Y-50910107D01*
X61568020Y-50987098D01*
X61568015Y-50987101D01*
X61414879Y-51098361D01*
X61288216Y-51239035D01*
X61193571Y-51402965D01*
X61193568Y-51402972D01*
X61135077Y-51582990D01*
X61135076Y-51582994D01*
X61115290Y-51771250D01*
X61135076Y-51959506D01*
X61135077Y-51959509D01*
X61193568Y-52139527D01*
X61193571Y-52139534D01*
X61288217Y-52303466D01*
X61410703Y-52439500D01*
X61414879Y-52444138D01*
X61449349Y-52469182D01*
X61492015Y-52524512D01*
X61497994Y-52594125D01*
X61465388Y-52655920D01*
X61404550Y-52690277D01*
X61376464Y-52693500D01*
X61373354Y-52693500D01*
X61345305Y-52699462D01*
X61188197Y-52732855D01*
X61188192Y-52732857D01*
X61010436Y-52812001D01*
X60941186Y-52821286D01*
X60909564Y-52812001D01*
X60731807Y-52732857D01*
X60731802Y-52732855D01*
X60574695Y-52699462D01*
X60546646Y-52693500D01*
X60357354Y-52693500D01*
X60329305Y-52699462D01*
X60172197Y-52732855D01*
X60172192Y-52732857D01*
X59999270Y-52809848D01*
X59999265Y-52809851D01*
X59846129Y-52921111D01*
X59719466Y-53061785D01*
X59624821Y-53225715D01*
X59624819Y-53225719D01*
X59564648Y-53410906D01*
X59525210Y-53468581D01*
X59508010Y-53475849D01*
X59531469Y-53497379D01*
X59549231Y-53564953D01*
X59548603Y-53574368D01*
X59546540Y-53594000D01*
X59566326Y-53782256D01*
X59566327Y-53782259D01*
X59624818Y-53962277D01*
X59624820Y-53962282D01*
X59666702Y-54034825D01*
X59683173Y-54102726D01*
X59660321Y-54168752D01*
X59605399Y-54211942D01*
X59535845Y-54218583D01*
X59533609Y-54218129D01*
X59530646Y-54217500D01*
X59341354Y-54217500D01*
X59291375Y-54228123D01*
X59156199Y-54256855D01*
X59030142Y-54312980D01*
X58978142Y-54319951D01*
X58956601Y-54352780D01*
X58949179Y-54358617D01*
X58830127Y-54445113D01*
X58703466Y-54585785D01*
X58608821Y-54749715D01*
X58608818Y-54749722D01*
X58552674Y-54922517D01*
X58550326Y-54929744D01*
X58530540Y-55118000D01*
X47070499Y-55118000D01*
X47070499Y-54982128D01*
X47064091Y-54922517D01*
X47013796Y-54787669D01*
X47013795Y-54787668D01*
X47013793Y-54787664D01*
X46927547Y-54672455D01*
X46927544Y-54672452D01*
X46812335Y-54586206D01*
X46812328Y-54586202D01*
X46677482Y-54535908D01*
X46677483Y-54535908D01*
X46617883Y-54529501D01*
X46617881Y-54529500D01*
X46617873Y-54529500D01*
X46617864Y-54529500D01*
X44822129Y-54529500D01*
X44822123Y-54529501D01*
X44762516Y-54535908D01*
X44627671Y-54586202D01*
X44627664Y-54586206D01*
X44512455Y-54672452D01*
X44512452Y-54672455D01*
X44426206Y-54787664D01*
X44426202Y-54787671D01*
X44375908Y-54922517D01*
X44369501Y-54982116D01*
X44369501Y-54982123D01*
X44369500Y-54982135D01*
X44369500Y-56777870D01*
X44369501Y-56777876D01*
X44375908Y-56837483D01*
X44426202Y-56972328D01*
X44426206Y-56972335D01*
X44512452Y-57087544D01*
X44512455Y-57087547D01*
X44627664Y-57173793D01*
X44627671Y-57173797D01*
X44759081Y-57222810D01*
X44815015Y-57264681D01*
X44839432Y-57330145D01*
X44824580Y-57398418D01*
X44803430Y-57426673D01*
X44681503Y-57548600D01*
X44545965Y-57742169D01*
X44545964Y-57742171D01*
X44446098Y-57956335D01*
X44446094Y-57956344D01*
X44384938Y-58184586D01*
X44384936Y-58184596D01*
X44364341Y-58419999D01*
X44364341Y-58420000D01*
X44384936Y-58655403D01*
X44384938Y-58655413D01*
X44446094Y-58883655D01*
X44446096Y-58883659D01*
X44446097Y-58883663D01*
X44545847Y-59097578D01*
X44545965Y-59097830D01*
X44545967Y-59097834D01*
X44681501Y-59291395D01*
X44681506Y-59291402D01*
X44848597Y-59458493D01*
X44848603Y-59458498D01*
X45034158Y-59588425D01*
X45077783Y-59643002D01*
X45084977Y-59712500D01*
X45053454Y-59774855D01*
X45034158Y-59791575D01*
X44848597Y-59921505D01*
X44681505Y-60088597D01*
X44545965Y-60282169D01*
X44545964Y-60282171D01*
X44446098Y-60496335D01*
X44446094Y-60496344D01*
X44384938Y-60724586D01*
X44384936Y-60724596D01*
X44364341Y-60959999D01*
X44364341Y-60960000D01*
X44384936Y-61195403D01*
X44384938Y-61195413D01*
X44446094Y-61423655D01*
X44446096Y-61423659D01*
X44446097Y-61423663D01*
X44545965Y-61637830D01*
X44545967Y-61637834D01*
X44681501Y-61831395D01*
X44681506Y-61831402D01*
X44848597Y-61998493D01*
X44848603Y-61998498D01*
X45034158Y-62128425D01*
X45077783Y-62183002D01*
X45084977Y-62252500D01*
X45053454Y-62314855D01*
X45034158Y-62331575D01*
X44848597Y-62461505D01*
X44681505Y-62628597D01*
X44545965Y-62822169D01*
X44545964Y-62822171D01*
X44446098Y-63036335D01*
X44446094Y-63036344D01*
X44384938Y-63264586D01*
X44384936Y-63264596D01*
X44364341Y-63499999D01*
X44364341Y-63500000D01*
X44384936Y-63735403D01*
X44384938Y-63735413D01*
X44446094Y-63963655D01*
X44446096Y-63963659D01*
X44446097Y-63963663D01*
X44545965Y-64177830D01*
X44545967Y-64177834D01*
X44681501Y-64371395D01*
X44681506Y-64371402D01*
X44848597Y-64538493D01*
X44848603Y-64538498D01*
X45034158Y-64668425D01*
X45077783Y-64723002D01*
X45084977Y-64792500D01*
X45053454Y-64854855D01*
X45034158Y-64871575D01*
X44848597Y-65001505D01*
X44681505Y-65168597D01*
X44545965Y-65362169D01*
X44545964Y-65362171D01*
X44446098Y-65576335D01*
X44446094Y-65576344D01*
X44384938Y-65804586D01*
X44384936Y-65804596D01*
X44364341Y-66039999D01*
X44364341Y-66040000D01*
X44384936Y-66275403D01*
X44384938Y-66275413D01*
X44446094Y-66503655D01*
X44446096Y-66503659D01*
X44446097Y-66503663D01*
X44545965Y-66717830D01*
X44545967Y-66717834D01*
X44681501Y-66911395D01*
X44681506Y-66911402D01*
X44848597Y-67078493D01*
X44848603Y-67078498D01*
X45034158Y-67208425D01*
X45077783Y-67263002D01*
X45084977Y-67332500D01*
X45053454Y-67394855D01*
X45034158Y-67411575D01*
X44848597Y-67541505D01*
X44681505Y-67708597D01*
X44545965Y-67902169D01*
X44545964Y-67902171D01*
X44446098Y-68116335D01*
X44446094Y-68116344D01*
X44384938Y-68344586D01*
X44384936Y-68344596D01*
X44364341Y-68579999D01*
X44364341Y-68580000D01*
X44384936Y-68815403D01*
X44384938Y-68815413D01*
X44446094Y-69043655D01*
X44446096Y-69043659D01*
X44446097Y-69043663D01*
X44545965Y-69257830D01*
X44545967Y-69257834D01*
X44681501Y-69451395D01*
X44681506Y-69451402D01*
X44848597Y-69618493D01*
X44848603Y-69618498D01*
X45034158Y-69748425D01*
X45077783Y-69803002D01*
X45084977Y-69872500D01*
X45053454Y-69934855D01*
X45034158Y-69951575D01*
X44848597Y-70081505D01*
X44681505Y-70248597D01*
X44545965Y-70442169D01*
X44545964Y-70442171D01*
X44446098Y-70656335D01*
X44446094Y-70656344D01*
X44384938Y-70884586D01*
X44384936Y-70884596D01*
X44364341Y-71119999D01*
X44364341Y-71120000D01*
X44384936Y-71355403D01*
X44384938Y-71355413D01*
X44446094Y-71583655D01*
X44446096Y-71583659D01*
X44446097Y-71583663D01*
X44545965Y-71797830D01*
X44545967Y-71797834D01*
X44681501Y-71991395D01*
X44681506Y-71991402D01*
X44848597Y-72158493D01*
X44848603Y-72158498D01*
X45034158Y-72288425D01*
X45077783Y-72343002D01*
X45084977Y-72412500D01*
X45053454Y-72474855D01*
X45034158Y-72491575D01*
X44848597Y-72621505D01*
X44681505Y-72788597D01*
X44545965Y-72982169D01*
X44545964Y-72982171D01*
X44446098Y-73196335D01*
X44446094Y-73196344D01*
X44384938Y-73424586D01*
X44384936Y-73424596D01*
X44364341Y-73659999D01*
X44364341Y-73660000D01*
X43180500Y-73660000D01*
X43180500Y-53340000D01*
X54974540Y-53340000D01*
X54994326Y-53528256D01*
X54994327Y-53528259D01*
X55052818Y-53708277D01*
X55052821Y-53708284D01*
X55147467Y-53872216D01*
X55228559Y-53962277D01*
X55274129Y-54012888D01*
X55427265Y-54124148D01*
X55427270Y-54124151D01*
X55600192Y-54201142D01*
X55600197Y-54201144D01*
X55785354Y-54240500D01*
X55785355Y-54240500D01*
X55974644Y-54240500D01*
X55974646Y-54240500D01*
X56159803Y-54201144D01*
X56332730Y-54124151D01*
X56442117Y-54044676D01*
X56507920Y-54021198D01*
X56575974Y-54037023D01*
X56587871Y-54044668D01*
X56663177Y-54099381D01*
X56697270Y-54124151D01*
X56870192Y-54201142D01*
X56870197Y-54201144D01*
X57055354Y-54240500D01*
X57055355Y-54240500D01*
X57244644Y-54240500D01*
X57244646Y-54240500D01*
X57429803Y-54201144D01*
X57602730Y-54124151D01*
X57712117Y-54044676D01*
X57777920Y-54021198D01*
X57845974Y-54037023D01*
X57857871Y-54044668D01*
X57933177Y-54099381D01*
X57967270Y-54124151D01*
X58140192Y-54201142D01*
X58140197Y-54201144D01*
X58325354Y-54240500D01*
X58325355Y-54240500D01*
X58514644Y-54240500D01*
X58514646Y-54240500D01*
X58699803Y-54201144D01*
X58825858Y-54145019D01*
X58877856Y-54138046D01*
X58899399Y-54105218D01*
X58906795Y-54099401D01*
X59025871Y-54012888D01*
X59152533Y-53872216D01*
X59247179Y-53708284D01*
X59305674Y-53528256D01*
X59305674Y-53528254D01*
X59307351Y-53523094D01*
X59346788Y-53465419D01*
X59363987Y-53458150D01*
X59340529Y-53436620D01*
X59322768Y-53369045D01*
X59323395Y-53359641D01*
X59325460Y-53340000D01*
X59305674Y-53151744D01*
X59247179Y-52971716D01*
X59152533Y-52807784D01*
X59025871Y-52667112D01*
X59014432Y-52658801D01*
X58872734Y-52555851D01*
X58872729Y-52555848D01*
X58699807Y-52478857D01*
X58699802Y-52478855D01*
X58536466Y-52444138D01*
X58514646Y-52439500D01*
X58325354Y-52439500D01*
X58303534Y-52444138D01*
X58140197Y-52478855D01*
X58140192Y-52478857D01*
X57967270Y-52555848D01*
X57967265Y-52555851D01*
X57857885Y-52635321D01*
X57792079Y-52658801D01*
X57724025Y-52642975D01*
X57712115Y-52635321D01*
X57602734Y-52555851D01*
X57602729Y-52555848D01*
X57429807Y-52478857D01*
X57429802Y-52478855D01*
X57266466Y-52444138D01*
X57244646Y-52439500D01*
X57055354Y-52439500D01*
X57033534Y-52444138D01*
X56870197Y-52478855D01*
X56870192Y-52478857D01*
X56697270Y-52555848D01*
X56697265Y-52555851D01*
X56587885Y-52635321D01*
X56522079Y-52658801D01*
X56454025Y-52642975D01*
X56442115Y-52635321D01*
X56332734Y-52555851D01*
X56332729Y-52555848D01*
X56159807Y-52478857D01*
X56159802Y-52478855D01*
X55996466Y-52444138D01*
X55974646Y-52439500D01*
X55785354Y-52439500D01*
X55763534Y-52444138D01*
X55600197Y-52478855D01*
X55600192Y-52478857D01*
X55427270Y-52555848D01*
X55427265Y-52555851D01*
X55274129Y-52667111D01*
X55147466Y-52807785D01*
X55052821Y-52971715D01*
X55052818Y-52971722D01*
X54994327Y-53151740D01*
X54994326Y-53151744D01*
X54974540Y-53340000D01*
X43180500Y-53340000D01*
X43180500Y-49530000D01*
X44814540Y-49530000D01*
X44834326Y-49718256D01*
X44834327Y-49718259D01*
X44892818Y-49898277D01*
X44892821Y-49898284D01*
X44987467Y-50062216D01*
X45114129Y-50202888D01*
X45267265Y-50314148D01*
X45267270Y-50314151D01*
X45440192Y-50391142D01*
X45440197Y-50391144D01*
X45625354Y-50430500D01*
X45625355Y-50430500D01*
X45814644Y-50430500D01*
X45814646Y-50430500D01*
X45999803Y-50391144D01*
X46172730Y-50314151D01*
X46325871Y-50202888D01*
X46452533Y-50062216D01*
X46547179Y-49898284D01*
X46605674Y-49718256D01*
X46625460Y-49530000D01*
X46605674Y-49341744D01*
X46547179Y-49161716D01*
X46452533Y-48997784D01*
X46325871Y-48857112D01*
X46325870Y-48857111D01*
X46172734Y-48745851D01*
X46172729Y-48745848D01*
X45999807Y-48668857D01*
X45999802Y-48668855D01*
X45854001Y-48637865D01*
X45814646Y-48629500D01*
X45625354Y-48629500D01*
X45592897Y-48636398D01*
X45440197Y-48668855D01*
X45440192Y-48668857D01*
X45267270Y-48745848D01*
X45267265Y-48745851D01*
X45114129Y-48857111D01*
X44987466Y-48997785D01*
X44892821Y-49161715D01*
X44892818Y-49161722D01*
X44834327Y-49341740D01*
X44834326Y-49341744D01*
X44814540Y-49530000D01*
X43180500Y-49530000D01*
X43180500Y-48260000D01*
X48624540Y-48260000D01*
X48644326Y-48448256D01*
X48644327Y-48448259D01*
X48702818Y-48628277D01*
X48702821Y-48628284D01*
X48797467Y-48792216D01*
X48924129Y-48932888D01*
X49077265Y-49044148D01*
X49077270Y-49044151D01*
X49250192Y-49121142D01*
X49250197Y-49121144D01*
X49435354Y-49160500D01*
X49435355Y-49160500D01*
X49624644Y-49160500D01*
X49624646Y-49160500D01*
X49809803Y-49121144D01*
X49982730Y-49044151D01*
X50092117Y-48964676D01*
X50157920Y-48941198D01*
X50225974Y-48957023D01*
X50237871Y-48964668D01*
X50347266Y-49044148D01*
X50347270Y-49044151D01*
X50520192Y-49121142D01*
X50520197Y-49121144D01*
X50705354Y-49160500D01*
X50705355Y-49160500D01*
X50894644Y-49160500D01*
X50894646Y-49160500D01*
X51079803Y-49121144D01*
X51252730Y-49044151D01*
X51362117Y-48964676D01*
X51427920Y-48941198D01*
X51495974Y-48957023D01*
X51507871Y-48964668D01*
X51617266Y-49044148D01*
X51617270Y-49044151D01*
X51790192Y-49121142D01*
X51790197Y-49121144D01*
X51975354Y-49160500D01*
X51975355Y-49160500D01*
X52164644Y-49160500D01*
X52164646Y-49160500D01*
X52349803Y-49121144D01*
X52522730Y-49044151D01*
X52675871Y-48932888D01*
X52709986Y-48895000D01*
X53704540Y-48895000D01*
X53724326Y-49083256D01*
X53724327Y-49083259D01*
X53782818Y-49263277D01*
X53782821Y-49263284D01*
X53877467Y-49427216D01*
X54004129Y-49567888D01*
X54157265Y-49679148D01*
X54157270Y-49679151D01*
X54330192Y-49756142D01*
X54330197Y-49756144D01*
X54515354Y-49795500D01*
X54515355Y-49795500D01*
X54704644Y-49795500D01*
X54704646Y-49795500D01*
X54889803Y-49756144D01*
X55062730Y-49679151D01*
X55215871Y-49567888D01*
X55342533Y-49427216D01*
X55437179Y-49263284D01*
X55495674Y-49083256D01*
X55515460Y-48895000D01*
X55495674Y-48706744D01*
X55437179Y-48526716D01*
X55342533Y-48362784D01*
X55249986Y-48260000D01*
X57514540Y-48260000D01*
X57534326Y-48448256D01*
X57534327Y-48448259D01*
X57592818Y-48628277D01*
X57592821Y-48628284D01*
X57687467Y-48792216D01*
X57814129Y-48932888D01*
X57967265Y-49044148D01*
X57967270Y-49044151D01*
X58140192Y-49121142D01*
X58140197Y-49121144D01*
X58325354Y-49160500D01*
X58325355Y-49160500D01*
X58514644Y-49160500D01*
X58514646Y-49160500D01*
X58678994Y-49125567D01*
X58748661Y-49130883D01*
X58804395Y-49173020D01*
X58828500Y-49238600D01*
X58822706Y-49285174D01*
X58804327Y-49341739D01*
X58804327Y-49341740D01*
X58804326Y-49341744D01*
X58784540Y-49530000D01*
X58804326Y-49718256D01*
X58804327Y-49718259D01*
X58862818Y-49898277D01*
X58862821Y-49898284D01*
X58957467Y-50062216D01*
X59084129Y-50202888D01*
X59237265Y-50314148D01*
X59237270Y-50314151D01*
X59410192Y-50391142D01*
X59410197Y-50391144D01*
X59595354Y-50430500D01*
X59595355Y-50430500D01*
X59784644Y-50430500D01*
X59784646Y-50430500D01*
X59969803Y-50391144D01*
X60142730Y-50314151D01*
X60295871Y-50202888D01*
X60422533Y-50062216D01*
X60517179Y-49898284D01*
X60575674Y-49718256D01*
X60595460Y-49530000D01*
X60575674Y-49341744D01*
X60517179Y-49161716D01*
X60422533Y-48997784D01*
X60404693Y-48977971D01*
X60374464Y-48914981D01*
X60383089Y-48845646D01*
X60404694Y-48812028D01*
X60422533Y-48792216D01*
X60517179Y-48628284D01*
X60575674Y-48448256D01*
X60595460Y-48260000D01*
X60575674Y-48071744D01*
X60520100Y-47900705D01*
X60518105Y-47830864D01*
X60554185Y-47771031D01*
X60616886Y-47740203D01*
X60686300Y-47748168D01*
X60688467Y-47749108D01*
X60753341Y-47777992D01*
X60753346Y-47777994D01*
X60938503Y-47817350D01*
X60938504Y-47817350D01*
X61127793Y-47817350D01*
X61127795Y-47817350D01*
X61222372Y-47797247D01*
X61292038Y-47802563D01*
X61347772Y-47844700D01*
X61366083Y-47880218D01*
X61402819Y-47993280D01*
X61402821Y-47993284D01*
X61497467Y-48157216D01*
X61624129Y-48297888D01*
X61777265Y-48409148D01*
X61777270Y-48409151D01*
X61950192Y-48486142D01*
X61950197Y-48486144D01*
X62135354Y-48525500D01*
X62135355Y-48525500D01*
X62324644Y-48525500D01*
X62324646Y-48525500D01*
X62509803Y-48486144D01*
X62682730Y-48409151D01*
X62835871Y-48297888D01*
X62962533Y-48157216D01*
X63057179Y-47993284D01*
X63115674Y-47813256D01*
X63135460Y-47625000D01*
X63115674Y-47436744D01*
X63057179Y-47256716D01*
X62962533Y-47092784D01*
X62835871Y-46952112D01*
X62787337Y-46916850D01*
X62682734Y-46840851D01*
X62682729Y-46840848D01*
X62509807Y-46763857D01*
X62509802Y-46763855D01*
X62364001Y-46732865D01*
X62324646Y-46724500D01*
X62135354Y-46724500D01*
X62040776Y-46744603D01*
X61971109Y-46739286D01*
X61915375Y-46697148D01*
X61897065Y-46661630D01*
X61860330Y-46548571D01*
X61860327Y-46548565D01*
X61765682Y-46384634D01*
X61639020Y-46243962D01*
X61639019Y-46243961D01*
X61485883Y-46132701D01*
X61485878Y-46132698D01*
X61312956Y-46055707D01*
X61312951Y-46055705D01*
X61167150Y-46024715D01*
X61127795Y-46016350D01*
X60938503Y-46016350D01*
X60906046Y-46023248D01*
X60753346Y-46055705D01*
X60753341Y-46055707D01*
X60580419Y-46132698D01*
X60580414Y-46132701D01*
X60427278Y-46243961D01*
X60300615Y-46384635D01*
X60205970Y-46548565D01*
X60205967Y-46548572D01*
X60157692Y-46697148D01*
X60147475Y-46728594D01*
X60127689Y-46916850D01*
X60147475Y-47105106D01*
X60147476Y-47105109D01*
X60203048Y-47276144D01*
X60205043Y-47345985D01*
X60168962Y-47405818D01*
X60106261Y-47436646D01*
X60036847Y-47428681D01*
X60034681Y-47427742D01*
X59969803Y-47398856D01*
X59969801Y-47398855D01*
X59969800Y-47398855D01*
X59853102Y-47374050D01*
X59784646Y-47359500D01*
X59595354Y-47359500D01*
X59562897Y-47366398D01*
X59410197Y-47398855D01*
X59410192Y-47398857D01*
X59237270Y-47475848D01*
X59237265Y-47475851D01*
X59127885Y-47555321D01*
X59062079Y-47578801D01*
X58994025Y-47562975D01*
X58982115Y-47555321D01*
X58872734Y-47475851D01*
X58872729Y-47475848D01*
X58699807Y-47398857D01*
X58699802Y-47398855D01*
X58554001Y-47367865D01*
X58514646Y-47359500D01*
X58325354Y-47359500D01*
X58292897Y-47366398D01*
X58140197Y-47398855D01*
X58140192Y-47398857D01*
X57967270Y-47475848D01*
X57967265Y-47475851D01*
X57814129Y-47587111D01*
X57687466Y-47727785D01*
X57592821Y-47891715D01*
X57592818Y-47891722D01*
X57546636Y-48033857D01*
X57534326Y-48071744D01*
X57514540Y-48260000D01*
X55249986Y-48260000D01*
X55215871Y-48222112D01*
X55215870Y-48222111D01*
X55062734Y-48110851D01*
X55062729Y-48110848D01*
X54889807Y-48033857D01*
X54889802Y-48033855D01*
X54744001Y-48002865D01*
X54704646Y-47994500D01*
X54515354Y-47994500D01*
X54482897Y-48001398D01*
X54330197Y-48033855D01*
X54330192Y-48033857D01*
X54157270Y-48110848D01*
X54157265Y-48110851D01*
X54004129Y-48222111D01*
X53877466Y-48362785D01*
X53782821Y-48526715D01*
X53782818Y-48526722D01*
X53736636Y-48668857D01*
X53724326Y-48706744D01*
X53704540Y-48895000D01*
X52709986Y-48895000D01*
X52802533Y-48792216D01*
X52897179Y-48628284D01*
X52955674Y-48448256D01*
X52975460Y-48260000D01*
X52955674Y-48071744D01*
X52897179Y-47891716D01*
X52802533Y-47727784D01*
X52675871Y-47587112D01*
X52664432Y-47578801D01*
X52522734Y-47475851D01*
X52522729Y-47475848D01*
X52349807Y-47398857D01*
X52349802Y-47398855D01*
X52204001Y-47367865D01*
X52164646Y-47359500D01*
X51975354Y-47359500D01*
X51942897Y-47366398D01*
X51790197Y-47398855D01*
X51790192Y-47398857D01*
X51617270Y-47475848D01*
X51617265Y-47475851D01*
X51507885Y-47555321D01*
X51442079Y-47578801D01*
X51374025Y-47562975D01*
X51362115Y-47555321D01*
X51252734Y-47475851D01*
X51252729Y-47475848D01*
X51079807Y-47398857D01*
X51079802Y-47398855D01*
X50934001Y-47367865D01*
X50894646Y-47359500D01*
X50705354Y-47359500D01*
X50591148Y-47383774D01*
X50541004Y-47394433D01*
X50471337Y-47389116D01*
X50415604Y-47346978D01*
X50391499Y-47281398D01*
X50397294Y-47234822D01*
X50415674Y-47178256D01*
X50435460Y-46990000D01*
X50415674Y-46801744D01*
X50357179Y-46621716D01*
X50262533Y-46457784D01*
X50135871Y-46317112D01*
X50135870Y-46317111D01*
X49982734Y-46205851D01*
X49982729Y-46205848D01*
X49809807Y-46128857D01*
X49809802Y-46128855D01*
X49664001Y-46097865D01*
X49624646Y-46089500D01*
X49435354Y-46089500D01*
X49402897Y-46096398D01*
X49250197Y-46128855D01*
X49250192Y-46128857D01*
X49077270Y-46205848D01*
X49077265Y-46205851D01*
X48924129Y-46317111D01*
X48797466Y-46457785D01*
X48702821Y-46621715D01*
X48702818Y-46621722D01*
X48656636Y-46763857D01*
X48644326Y-46801744D01*
X48624540Y-46990000D01*
X48644326Y-47178256D01*
X48644327Y-47178259D01*
X48702818Y-47358277D01*
X48702821Y-47358284D01*
X48797467Y-47522216D01*
X48807806Y-47533699D01*
X48815307Y-47542030D01*
X48845535Y-47605022D01*
X48836909Y-47674357D01*
X48815307Y-47707970D01*
X48797466Y-47727785D01*
X48702821Y-47891715D01*
X48702818Y-47891722D01*
X48656636Y-48033857D01*
X48644326Y-48071744D01*
X48624540Y-48260000D01*
X43180500Y-48260000D01*
X43180500Y-46990000D01*
X44814540Y-46990000D01*
X44834326Y-47178256D01*
X44834327Y-47178259D01*
X44892818Y-47358277D01*
X44892821Y-47358284D01*
X44987467Y-47522216D01*
X45114129Y-47662888D01*
X45267265Y-47774148D01*
X45267270Y-47774151D01*
X45440192Y-47851142D01*
X45440197Y-47851144D01*
X45625354Y-47890500D01*
X45625355Y-47890500D01*
X45814644Y-47890500D01*
X45814646Y-47890500D01*
X45999803Y-47851144D01*
X46172730Y-47774151D01*
X46325871Y-47662888D01*
X46452533Y-47522216D01*
X46547179Y-47358284D01*
X46605674Y-47178256D01*
X46625460Y-46990000D01*
X46605674Y-46801744D01*
X46547179Y-46621716D01*
X46452533Y-46457784D01*
X46325871Y-46317112D01*
X46325870Y-46317111D01*
X46172734Y-46205851D01*
X46172729Y-46205848D01*
X45999807Y-46128857D01*
X45999802Y-46128855D01*
X45854001Y-46097865D01*
X45814646Y-46089500D01*
X45625354Y-46089500D01*
X45592897Y-46096398D01*
X45440197Y-46128855D01*
X45440192Y-46128857D01*
X45267270Y-46205848D01*
X45267265Y-46205851D01*
X45114129Y-46317111D01*
X44987466Y-46457785D01*
X44892821Y-46621715D01*
X44892818Y-46621722D01*
X44846636Y-46763857D01*
X44834326Y-46801744D01*
X44814540Y-46990000D01*
X43180500Y-46990000D01*
X43180500Y-43304500D01*
X43200185Y-43237461D01*
X43252989Y-43191706D01*
X43304500Y-43180500D01*
X63375500Y-43180500D01*
X63442539Y-43200185D01*
G37*
%TD.AperFunction*%
%TD*%
M02*
