%TF.GenerationSoftware,KiCad,Pcbnew,7.0.8*%
%TF.CreationDate,2023-10-11T21:25:33+02:00*%
%TF.ProjectId,test_sr,74657374-5f73-4722-9e6b-696361645f70,rev?*%
%TF.SameCoordinates,Original*%
%TF.FileFunction,Copper,L1,Top*%
%TF.FilePolarity,Positive*%
%FSLAX46Y46*%
G04 Gerber Fmt 4.6, Leading zero omitted, Abs format (unit mm)*
G04 Created by KiCad (PCBNEW 7.0.8) date 2023-10-11 21:25:33*
%MOMM*%
%LPD*%
G01*
G04 APERTURE LIST*
G04 Aperture macros list*
%AMRoundRect*
0 Rectangle with rounded corners*
0 $1 Rounding radius*
0 $2 $3 $4 $5 $6 $7 $8 $9 X,Y pos of 4 corners*
0 Add a 4 corners polygon primitive as box body*
4,1,4,$2,$3,$4,$5,$6,$7,$8,$9,$2,$3,0*
0 Add four circle primitives for the rounded corners*
1,1,$1+$1,$2,$3*
1,1,$1+$1,$4,$5*
1,1,$1+$1,$6,$7*
1,1,$1+$1,$8,$9*
0 Add four rect primitives between the rounded corners*
20,1,$1+$1,$2,$3,$4,$5,0*
20,1,$1+$1,$4,$5,$6,$7,0*
20,1,$1+$1,$6,$7,$8,$9,0*
20,1,$1+$1,$8,$9,$2,$3,0*%
G04 Aperture macros list end*
%TA.AperFunction,SMDPad,CuDef*%
%ADD10RoundRect,0.200000X0.275000X-0.200000X0.275000X0.200000X-0.275000X0.200000X-0.275000X-0.200000X0*%
%TD*%
%TA.AperFunction,SMDPad,CuDef*%
%ADD11RoundRect,0.200000X-0.275000X0.200000X-0.275000X-0.200000X0.275000X-0.200000X0.275000X0.200000X0*%
%TD*%
%TA.AperFunction,SMDPad,CuDef*%
%ADD12RoundRect,0.225000X0.225000X0.250000X-0.225000X0.250000X-0.225000X-0.250000X0.225000X-0.250000X0*%
%TD*%
%TA.AperFunction,SMDPad,CuDef*%
%ADD13RoundRect,0.218750X0.218750X0.256250X-0.218750X0.256250X-0.218750X-0.256250X0.218750X-0.256250X0*%
%TD*%
%TA.AperFunction,SMDPad,CuDef*%
%ADD14RoundRect,0.200000X-0.200000X-0.275000X0.200000X-0.275000X0.200000X0.275000X-0.200000X0.275000X0*%
%TD*%
%TA.AperFunction,ComponentPad*%
%ADD15R,1.700000X1.700000*%
%TD*%
%TA.AperFunction,ComponentPad*%
%ADD16O,1.700000X1.700000*%
%TD*%
%TA.AperFunction,SMDPad,CuDef*%
%ADD17RoundRect,0.137500X0.137500X-0.662500X0.137500X0.662500X-0.137500X0.662500X-0.137500X-0.662500X0*%
%TD*%
%TA.AperFunction,ViaPad*%
%ADD18C,0.800000*%
%TD*%
%TA.AperFunction,Conductor*%
%ADD19C,0.250000*%
%TD*%
%TA.AperFunction,Conductor*%
%ADD20C,1.000000*%
%TD*%
%TA.AperFunction,Conductor*%
%ADD21C,0.750000*%
%TD*%
%TA.AperFunction,Conductor*%
%ADD22C,0.500000*%
%TD*%
G04 APERTURE END LIST*
D10*
%TO.P,R10,1*%
%TO.N,/N_SR_CLR*%
X62230000Y-50355000D03*
%TO.P,R10,2*%
%TO.N,GND*%
X62230000Y-48705000D03*
%TD*%
D11*
%TO.P,R9,1*%
%TO.N,/N_OE*%
X62230000Y-44895000D03*
%TO.P,R9,2*%
%TO.N,GND*%
X62230000Y-46545000D03*
%TD*%
D12*
%TO.P,C3,1*%
%TO.N,+3.3V*%
X47270000Y-45720000D03*
%TO.P,C3,2*%
%TO.N,GND*%
X45720000Y-45720000D03*
%TD*%
D13*
%TO.P,D7,1,K*%
%TO.N,Net-(D7-K)*%
X50800000Y-71120000D03*
%TO.P,D7,2,A*%
%TO.N,/QG*%
X49225000Y-71120000D03*
%TD*%
D12*
%TO.P,C1,1*%
%TO.N,+3.3V*%
X47270000Y-50740000D03*
%TO.P,C1,2*%
%TO.N,GND*%
X45720000Y-50740000D03*
%TD*%
D13*
%TO.P,D2,1,K*%
%TO.N,Net-(D2-K)*%
X50800000Y-58420000D03*
%TO.P,D2,2,A*%
%TO.N,/QB*%
X49225000Y-58420000D03*
%TD*%
D14*
%TO.P,R8,1*%
%TO.N,Net-(D8-K)*%
X53340000Y-73660000D03*
%TO.P,R8,2*%
%TO.N,GND*%
X54990000Y-73660000D03*
%TD*%
D15*
%TO.P,J1,1,Pin_1*%
%TO.N,/QA*%
X45720000Y-55880000D03*
D16*
%TO.P,J1,2,Pin_2*%
%TO.N,/QB*%
X45720000Y-58420000D03*
%TO.P,J1,3,Pin_3*%
%TO.N,/QC*%
X45720000Y-60960000D03*
%TO.P,J1,4,Pin_4*%
%TO.N,/QD*%
X45720000Y-63500000D03*
%TO.P,J1,5,Pin_5*%
%TO.N,/QE*%
X45720000Y-66040000D03*
%TO.P,J1,6,Pin_6*%
%TO.N,/QF*%
X45720000Y-68580000D03*
%TO.P,J1,7,Pin_7*%
%TO.N,/QG*%
X45720000Y-71120000D03*
%TO.P,J1,8,Pin_8*%
%TO.N,/QH*%
X45720000Y-73660000D03*
%TD*%
D13*
%TO.P,D6,1,K*%
%TO.N,Net-(D6-K)*%
X50800000Y-68580000D03*
%TO.P,D6,2,A*%
%TO.N,/QF*%
X49225000Y-68580000D03*
%TD*%
D12*
%TO.P,C2,1*%
%TO.N,+3.3V*%
X47270000Y-48230000D03*
%TO.P,C2,2*%
%TO.N,GND*%
X45720000Y-48230000D03*
%TD*%
D14*
%TO.P,R5,1*%
%TO.N,Net-(D5-K)*%
X53340000Y-66040000D03*
%TO.P,R5,2*%
%TO.N,GND*%
X54990000Y-66040000D03*
%TD*%
%TO.P,R2,1*%
%TO.N,Net-(D2-K)*%
X53340000Y-58420000D03*
%TO.P,R2,2*%
%TO.N,GND*%
X54990000Y-58420000D03*
%TD*%
%TO.P,R3,1*%
%TO.N,Net-(D3-K)*%
X53340000Y-60960000D03*
%TO.P,R3,2*%
%TO.N,GND*%
X54990000Y-60960000D03*
%TD*%
%TO.P,R4,1*%
%TO.N,Net-(D4-K)*%
X53340000Y-63500000D03*
%TO.P,R4,2*%
%TO.N,GND*%
X54990000Y-63500000D03*
%TD*%
%TO.P,R6,1*%
%TO.N,Net-(D6-K)*%
X53340000Y-68580000D03*
%TO.P,R6,2*%
%TO.N,GND*%
X54990000Y-68580000D03*
%TD*%
D15*
%TO.P,J2,1,Pin_1*%
%TO.N,GND*%
X60960000Y-55880000D03*
D16*
%TO.P,J2,2,Pin_2*%
%TO.N,+3.3V*%
X60960000Y-58420000D03*
%TO.P,J2,3,Pin_3*%
%TO.N,/SEROUT*%
X60960000Y-60960000D03*
%TO.P,J2,4,Pin_4*%
%TO.N,/N_SR_CLR*%
X60960000Y-63500000D03*
%TO.P,J2,5,Pin_5*%
%TO.N,/R_CLK*%
X60960000Y-66040000D03*
%TO.P,J2,6,Pin_6*%
%TO.N,/SR_CLK*%
X60960000Y-68580000D03*
%TO.P,J2,7,Pin_7*%
%TO.N,/N_OE*%
X60960000Y-71120000D03*
%TO.P,J2,8,Pin_8*%
%TO.N,/SER*%
X60960000Y-73660000D03*
%TD*%
D13*
%TO.P,D1,1,K*%
%TO.N,Net-(D1-K)*%
X50800000Y-55880000D03*
%TO.P,D1,2,A*%
%TO.N,/QA*%
X49225000Y-55880000D03*
%TD*%
D14*
%TO.P,R7,1*%
%TO.N,Net-(D7-K)*%
X53340000Y-71120000D03*
%TO.P,R7,2*%
%TO.N,GND*%
X54990000Y-71120000D03*
%TD*%
D13*
%TO.P,D3,1,K*%
%TO.N,Net-(D3-K)*%
X50800000Y-60960000D03*
%TO.P,D3,2,A*%
%TO.N,/QC*%
X49225000Y-60960000D03*
%TD*%
%TO.P,D8,1,K*%
%TO.N,Net-(D8-K)*%
X50800000Y-73660000D03*
%TO.P,D8,2,A*%
%TO.N,/QH*%
X49225000Y-73660000D03*
%TD*%
%TO.P,D5,1,K*%
%TO.N,Net-(D5-K)*%
X50800000Y-66040000D03*
%TO.P,D5,2,A*%
%TO.N,/QE*%
X49225000Y-66040000D03*
%TD*%
D17*
%TO.P,U1,1,QB*%
%TO.N,/QB*%
X51435000Y-51510000D03*
%TO.P,U1,2,QC*%
%TO.N,/QC*%
X52705000Y-51510000D03*
%TO.P,U1,3,QD*%
%TO.N,/QD*%
X53975000Y-51510000D03*
%TO.P,U1,4,QE*%
%TO.N,/QE*%
X55245000Y-51510000D03*
%TO.P,U1,5,QF*%
%TO.N,/QF*%
X56515000Y-51510000D03*
%TO.P,U1,6,QG*%
%TO.N,/QG*%
X57785000Y-51510000D03*
%TO.P,U1,7,QH*%
%TO.N,/QH*%
X59055000Y-51510000D03*
%TO.P,U1,8,GND*%
%TO.N,GND*%
X60325000Y-51510000D03*
%TO.P,U1,9,QH'*%
%TO.N,/SEROUT*%
X60325000Y-45010000D03*
%TO.P,U1,10,~{SRCLR}*%
%TO.N,/N_SR_CLR*%
X59055000Y-45010000D03*
%TO.P,U1,11,SRCLK*%
%TO.N,/SR_CLK*%
X57785000Y-45010000D03*
%TO.P,U1,12,RCLK*%
%TO.N,/R_CLK*%
X56515000Y-45010000D03*
%TO.P,U1,13,~{OE}*%
%TO.N,/N_OE*%
X55245000Y-45010000D03*
%TO.P,U1,14,SER*%
%TO.N,/SER*%
X53975000Y-45010000D03*
%TO.P,U1,15,QA*%
%TO.N,/QA*%
X52705000Y-45010000D03*
%TO.P,U1,16,VCC*%
%TO.N,+3.3V*%
X51435000Y-45010000D03*
%TD*%
D14*
%TO.P,R1,1*%
%TO.N,Net-(D1-K)*%
X53340000Y-55880000D03*
%TO.P,R1,2*%
%TO.N,GND*%
X54990000Y-55880000D03*
%TD*%
D13*
%TO.P,D4,1,K*%
%TO.N,Net-(D4-K)*%
X50800000Y-63500000D03*
%TO.P,D4,2,A*%
%TO.N,/QD*%
X49225000Y-63500000D03*
%TD*%
D18*
%TO.N,GND*%
X59436000Y-55118000D03*
X60452000Y-53594000D03*
X61468000Y-53594000D03*
%TO.N,+3.3V*%
X57112500Y-59690000D03*
X57949500Y-59690000D03*
X57949500Y-57150000D03*
X57112500Y-57150000D03*
X59436000Y-59690000D03*
X59436000Y-57150000D03*
X59436000Y-58420000D03*
X47244000Y-49530000D03*
X47244000Y-46990000D03*
%TO.N,/SEROUT*%
X61033149Y-46916850D03*
%TO.N,GND*%
X62230000Y-47625000D03*
X54990000Y-67310000D03*
X54990000Y-62230000D03*
X54990000Y-59690000D03*
X54990000Y-64770000D03*
X59690000Y-49530000D03*
X45720000Y-49530000D03*
X45720000Y-46990000D03*
X54990000Y-69850000D03*
X54990000Y-72390000D03*
%TO.N,+3.3V*%
X49530000Y-45720000D03*
%TO.N,/QA*%
X49530000Y-46990000D03*
%TO.N,/QB*%
X49530000Y-48260000D03*
%TO.N,/QC*%
X50800000Y-48260000D03*
%TO.N,/QD*%
X52070000Y-48260000D03*
%TO.N,/QE*%
X54610000Y-48895000D03*
%TO.N,/QF*%
X55880000Y-53340000D03*
%TO.N,/QG*%
X57150000Y-53340000D03*
%TO.N,/QH*%
X58420000Y-53340000D03*
%TO.N,/N_SR_CLR*%
X62020750Y-51771250D03*
%TO.N,/R_CLK*%
X59690000Y-48260000D03*
%TO.N,/N_OE*%
X58420000Y-48260000D03*
%TD*%
D19*
%TO.N,/SR_CLK*%
X63246000Y-54021805D02*
X63246000Y-66294000D01*
X60960000Y-51735805D02*
X63246000Y-54021805D01*
X63246000Y-66294000D02*
X60960000Y-68580000D01*
X60960000Y-48504695D02*
X60960000Y-51735805D01*
X57785000Y-45329695D02*
X60960000Y-48504695D01*
X57785000Y-45010000D02*
X57785000Y-45329695D01*
%TO.N,/N_SR_CLR*%
X62020750Y-51771250D02*
X61430000Y-51180500D01*
X61430000Y-51180500D02*
X61430000Y-50165000D01*
%TO.N,/SEROUT*%
X61341000Y-60960000D02*
X60960000Y-60960000D01*
D20*
%TO.N,+3.3V*%
X60960000Y-58420000D02*
X59436000Y-58420000D01*
X61007750Y-58420000D02*
X59436000Y-58420000D01*
D19*
%TO.N,/SER*%
X55880000Y-68580000D02*
X60960000Y-73660000D01*
X55880000Y-55245000D02*
X55880000Y-68580000D01*
X54610000Y-50163604D02*
X54610000Y-53975000D01*
X54610000Y-53975000D02*
X55880000Y-55245000D01*
X53700000Y-49253604D02*
X54610000Y-50163604D01*
X53700000Y-45285000D02*
X53700000Y-49253604D01*
X53975000Y-45010000D02*
X53700000Y-45285000D01*
D21*
%TO.N,+3.3V*%
X47270000Y-49504000D02*
X47270000Y-48230000D01*
X47244000Y-49530000D02*
X47270000Y-49504000D01*
X47270000Y-49556000D02*
X47244000Y-49530000D01*
X47270000Y-46964000D02*
X47270000Y-45720000D01*
D19*
X47244000Y-46990000D02*
X47270000Y-46964000D01*
X47270000Y-47016000D02*
X47244000Y-46990000D01*
%TO.N,/SEROUT*%
X60325000Y-46208701D02*
X61033149Y-46916850D01*
X60325000Y-45010000D02*
X60325000Y-46208701D01*
%TO.N,GND*%
X62230000Y-47625000D02*
X62230000Y-48705000D01*
X62230000Y-46545000D02*
X62230000Y-47625000D01*
%TO.N,/N_OE*%
X62040000Y-44895000D02*
X62230000Y-44895000D01*
X61030000Y-43885000D02*
X62040000Y-44895000D01*
%TO.N,/N_SR_CLR*%
X62230000Y-50355000D02*
X61875000Y-50355000D01*
X61620000Y-50355000D02*
X61430000Y-50165000D01*
X62230000Y-50355000D02*
X61620000Y-50355000D01*
X61430000Y-48338299D02*
X61430000Y-50165000D01*
X59055000Y-45963299D02*
X61430000Y-48338299D01*
%TO.N,/N_OE*%
X55245000Y-44210000D02*
X55570000Y-43885000D01*
X55570000Y-43885000D02*
X61030000Y-43885000D01*
X55245000Y-45010000D02*
X55245000Y-44210000D01*
D22*
%TO.N,Net-(D1-K)*%
X50800000Y-55880000D02*
X53340000Y-55880000D01*
%TO.N,Net-(D2-K)*%
X50800000Y-58420000D02*
X53340000Y-58420000D01*
%TO.N,Net-(D3-K)*%
X50800000Y-60960000D02*
X53340000Y-60960000D01*
%TO.N,Net-(D4-K)*%
X50800000Y-63500000D02*
X53340000Y-63500000D01*
%TO.N,Net-(D5-K)*%
X50800000Y-66040000D02*
X53340000Y-66040000D01*
%TO.N,Net-(D6-K)*%
X50800000Y-68580000D02*
X53340000Y-68580000D01*
%TO.N,Net-(D7-K)*%
X50800000Y-71120000D02*
X53340000Y-71120000D01*
%TO.N,Net-(D8-K)*%
X50800000Y-73660000D02*
X53340000Y-73660000D01*
D21*
%TO.N,GND*%
X45720000Y-49530000D02*
X45720000Y-48230000D01*
X60325000Y-51510000D02*
X60325000Y-50165000D01*
X60325000Y-50165000D02*
X59690000Y-49530000D01*
X45720000Y-46990000D02*
X45720000Y-48230000D01*
X45720000Y-45720000D02*
X45720000Y-46990000D01*
X45720000Y-50740000D02*
X45720000Y-49530000D01*
X54990000Y-55880000D02*
X54990000Y-73660000D01*
D19*
X45720000Y-50740000D02*
X45720000Y-50800000D01*
D21*
%TO.N,+3.3V*%
X47270000Y-48230000D02*
X47270000Y-47016000D01*
X50725000Y-45720000D02*
X49530000Y-45720000D01*
X51435000Y-45010000D02*
X50725000Y-45720000D01*
X49530000Y-45720000D02*
X47270000Y-45720000D01*
X47270000Y-50740000D02*
X47270000Y-49556000D01*
D22*
%TO.N,/QA*%
X49225000Y-55880000D02*
X45720000Y-55880000D01*
D19*
X51525000Y-46990000D02*
X49530000Y-46990000D01*
X52705000Y-45810000D02*
X51525000Y-46990000D01*
X52705000Y-45010000D02*
X52705000Y-45810000D01*
%TO.N,/QB*%
X51435000Y-50165000D02*
X49530000Y-48260000D01*
D22*
X49225000Y-58420000D02*
X45720000Y-58420000D01*
D19*
X51435000Y-51510000D02*
X51435000Y-50165000D01*
%TO.N,/QC*%
X52705000Y-50165000D02*
X52070000Y-49530000D01*
X52705000Y-51510000D02*
X52705000Y-50165000D01*
D22*
X45720000Y-60960000D02*
X49225000Y-60960000D01*
D19*
X52070000Y-49530000D02*
X50800000Y-48260000D01*
D22*
%TO.N,/QD*%
X45720000Y-63500000D02*
X49225000Y-63500000D01*
D19*
X53975000Y-51510000D02*
X53975000Y-50165000D01*
X53975000Y-50165000D02*
X52070000Y-48260000D01*
D22*
%TO.N,/QE*%
X45720000Y-66040000D02*
X49225000Y-66040000D01*
D19*
X55245000Y-51510000D02*
X55245000Y-49530000D01*
X55245000Y-49530000D02*
X54610000Y-48895000D01*
%TO.N,/QF*%
X56515000Y-51510000D02*
X56515000Y-52705000D01*
D22*
X45720000Y-68580000D02*
X49225000Y-68580000D01*
D19*
X56515000Y-52705000D02*
X55880000Y-53340000D01*
%TO.N,/QG*%
X57785000Y-52705000D02*
X57150000Y-53340000D01*
D22*
X45720000Y-71120000D02*
X49225000Y-71120000D01*
D19*
X57785000Y-51510000D02*
X57785000Y-52705000D01*
%TO.N,/QH*%
X59055000Y-52705000D02*
X58420000Y-53340000D01*
X59055000Y-51510000D02*
X59055000Y-52705000D01*
D22*
X45720000Y-73660000D02*
X49225000Y-73660000D01*
D19*
%TO.N,/N_SR_CLR*%
X59055000Y-45010000D02*
X59055000Y-45963299D01*
%TO.N,/R_CLK*%
X58420000Y-46990000D02*
X59690000Y-48260000D01*
X57695000Y-46990000D02*
X58420000Y-46990000D01*
X56515000Y-45010000D02*
X56515000Y-45810000D01*
X56515000Y-45810000D02*
X57695000Y-46990000D01*
%TO.N,/N_OE*%
X55245000Y-46245926D02*
X57259074Y-48260000D01*
X55245000Y-45010000D02*
X55245000Y-46245926D01*
X57259074Y-48260000D02*
X58420000Y-48260000D01*
%TD*%
%TA.AperFunction,Conductor*%
%TO.N,GND*%
G36*
X45917039Y-43200185D02*
G01*
X45962794Y-43252989D01*
X45974000Y-43304500D01*
X45974000Y-44689638D01*
X45970000Y-44703260D01*
X45970000Y-46721867D01*
X45971166Y-46724003D01*
X45974000Y-46750361D01*
X45974000Y-47199638D01*
X45970000Y-47213260D01*
X45970000Y-49231867D01*
X45971166Y-49234003D01*
X45974000Y-49260361D01*
X45974000Y-49709638D01*
X45970000Y-49723260D01*
X45970000Y-50866000D01*
X45950315Y-50933039D01*
X45897511Y-50978794D01*
X45846000Y-50990000D01*
X44770001Y-50990000D01*
X44770001Y-51038322D01*
X44780144Y-51137607D01*
X44833452Y-51298481D01*
X44833457Y-51298492D01*
X44922424Y-51442728D01*
X44922427Y-51442732D01*
X45042267Y-51562572D01*
X45042271Y-51562575D01*
X45080997Y-51586462D01*
X45127722Y-51638410D01*
X45138943Y-51707372D01*
X45111100Y-51771454D01*
X45053031Y-51810310D01*
X45015900Y-51816000D01*
X43304500Y-51816000D01*
X43237461Y-51796315D01*
X43191706Y-51743511D01*
X43180500Y-51692000D01*
X43180500Y-50490000D01*
X44770000Y-50490000D01*
X45470000Y-50490000D01*
X45470000Y-49764999D01*
X45446693Y-49765000D01*
X45446674Y-49765001D01*
X45347392Y-49775144D01*
X45186518Y-49828452D01*
X45186507Y-49828457D01*
X45042271Y-49917424D01*
X45042267Y-49917427D01*
X44922427Y-50037267D01*
X44922424Y-50037271D01*
X44833457Y-50181507D01*
X44833452Y-50181518D01*
X44780144Y-50342393D01*
X44770000Y-50441677D01*
X44770000Y-50490000D01*
X43180500Y-50490000D01*
X43180500Y-48480000D01*
X44770001Y-48480000D01*
X44770001Y-48528322D01*
X44780144Y-48627607D01*
X44833452Y-48788481D01*
X44833457Y-48788492D01*
X44922424Y-48932728D01*
X44922427Y-48932732D01*
X45042267Y-49052572D01*
X45042271Y-49052575D01*
X45186507Y-49141542D01*
X45186518Y-49141547D01*
X45347393Y-49194855D01*
X45446683Y-49204999D01*
X45470000Y-49204998D01*
X45470000Y-48480000D01*
X44770001Y-48480000D01*
X43180500Y-48480000D01*
X43180500Y-47980000D01*
X44770000Y-47980000D01*
X45470000Y-47980000D01*
X45470000Y-47254999D01*
X45446693Y-47255000D01*
X45446674Y-47255001D01*
X45347392Y-47265144D01*
X45186518Y-47318452D01*
X45186507Y-47318457D01*
X45042271Y-47407424D01*
X45042267Y-47407427D01*
X44922427Y-47527267D01*
X44922424Y-47527271D01*
X44833457Y-47671507D01*
X44833452Y-47671518D01*
X44780144Y-47832393D01*
X44770000Y-47931677D01*
X44770000Y-47980000D01*
X43180500Y-47980000D01*
X43180500Y-45970000D01*
X44770001Y-45970000D01*
X44770001Y-46018322D01*
X44780144Y-46117607D01*
X44833452Y-46278481D01*
X44833457Y-46278492D01*
X44922424Y-46422728D01*
X44922427Y-46422732D01*
X45042267Y-46542572D01*
X45042271Y-46542575D01*
X45186507Y-46631542D01*
X45186518Y-46631547D01*
X45347393Y-46684855D01*
X45446683Y-46694999D01*
X45470000Y-46694998D01*
X45470000Y-45970000D01*
X44770001Y-45970000D01*
X43180500Y-45970000D01*
X43180500Y-45470000D01*
X44770000Y-45470000D01*
X45470000Y-45470000D01*
X45470000Y-44744999D01*
X45446693Y-44745000D01*
X45446674Y-44745001D01*
X45347392Y-44755144D01*
X45186518Y-44808452D01*
X45186507Y-44808457D01*
X45042271Y-44897424D01*
X45042267Y-44897427D01*
X44922427Y-45017267D01*
X44922424Y-45017271D01*
X44833457Y-45161507D01*
X44833452Y-45161518D01*
X44780144Y-45322393D01*
X44770000Y-45421677D01*
X44770000Y-45470000D01*
X43180500Y-45470000D01*
X43180500Y-43304500D01*
X43200185Y-43237461D01*
X43252989Y-43191706D01*
X43304500Y-43180500D01*
X45850000Y-43180500D01*
X45917039Y-43200185D01*
G37*
%TD.AperFunction*%
%TD*%
%TA.AperFunction,Conductor*%
%TO.N,+3.3V*%
G36*
X52013039Y-43200185D02*
G01*
X52058794Y-43252989D01*
X52070000Y-43304500D01*
X52070000Y-43683685D01*
X52050315Y-43750724D01*
X51997511Y-43796479D01*
X51928353Y-43806423D01*
X51882880Y-43790417D01*
X51827696Y-43757782D01*
X51827689Y-43757778D01*
X51685001Y-43716323D01*
X51685000Y-43716324D01*
X51685000Y-45089000D01*
X51514000Y-45260000D01*
X50660001Y-45260000D01*
X50660001Y-45736883D01*
X50662844Y-45773021D01*
X50707780Y-45927692D01*
X50707783Y-45927699D01*
X50710298Y-45931952D01*
X50727479Y-45999676D01*
X50705319Y-46065938D01*
X50691247Y-46082752D01*
X50546000Y-46228000D01*
X50546000Y-46240500D01*
X50526315Y-46307539D01*
X50473511Y-46353294D01*
X50422000Y-46364500D01*
X50233748Y-46364500D01*
X50166709Y-46344815D01*
X50141600Y-46323474D01*
X50135873Y-46317114D01*
X50135869Y-46317110D01*
X49982734Y-46205851D01*
X49982729Y-46205848D01*
X49809807Y-46128857D01*
X49809802Y-46128855D01*
X49664001Y-46097865D01*
X49624646Y-46089500D01*
X49435354Y-46089500D01*
X49402897Y-46096398D01*
X49250197Y-46128855D01*
X49250192Y-46128857D01*
X49077270Y-46205848D01*
X49077265Y-46205851D01*
X48924129Y-46317111D01*
X48797466Y-46457785D01*
X48702821Y-46621715D01*
X48702818Y-46621722D01*
X48652573Y-46776361D01*
X48644326Y-46801744D01*
X48624540Y-46990000D01*
X48644326Y-47178256D01*
X48644327Y-47178259D01*
X48702818Y-47358277D01*
X48702821Y-47358284D01*
X48797467Y-47522216D01*
X48802015Y-47527267D01*
X48815307Y-47542030D01*
X48845535Y-47605022D01*
X48836909Y-47674357D01*
X48815307Y-47707970D01*
X48797466Y-47727785D01*
X48702821Y-47891715D01*
X48702818Y-47891722D01*
X48644327Y-48071740D01*
X48644326Y-48071744D01*
X48624540Y-48260000D01*
X48644326Y-48448256D01*
X48644327Y-48448259D01*
X48702818Y-48628277D01*
X48702821Y-48628284D01*
X48797467Y-48792216D01*
X48923985Y-48932728D01*
X48924129Y-48932888D01*
X49077265Y-49044148D01*
X49077270Y-49044151D01*
X49250192Y-49121142D01*
X49250197Y-49121144D01*
X49435354Y-49160500D01*
X49494548Y-49160500D01*
X49561587Y-49180185D01*
X49582229Y-49196819D01*
X50509681Y-50124271D01*
X50543166Y-50185594D01*
X50546000Y-50211952D01*
X50546000Y-51692000D01*
X50526315Y-51759039D01*
X50473511Y-51804794D01*
X50422000Y-51816000D01*
X47974100Y-51816000D01*
X47907061Y-51796315D01*
X47861306Y-51743511D01*
X47851362Y-51674353D01*
X47880387Y-51610797D01*
X47909003Y-51586462D01*
X47947728Y-51562575D01*
X47947732Y-51562572D01*
X48067572Y-51442732D01*
X48067575Y-51442728D01*
X48156542Y-51298492D01*
X48156547Y-51298481D01*
X48209855Y-51137606D01*
X48219999Y-51038322D01*
X48220000Y-51038309D01*
X48220000Y-50990000D01*
X47144000Y-50990000D01*
X47076961Y-50970315D01*
X47031206Y-50917511D01*
X47020000Y-50866000D01*
X47020000Y-49765000D01*
X47520000Y-49765000D01*
X47520000Y-50490000D01*
X48219999Y-50490000D01*
X48219999Y-50441692D01*
X48219998Y-50441677D01*
X48209855Y-50342392D01*
X48156547Y-50181518D01*
X48156542Y-50181507D01*
X48067575Y-50037271D01*
X48067572Y-50037267D01*
X47947732Y-49917427D01*
X47947728Y-49917424D01*
X47803492Y-49828457D01*
X47803481Y-49828452D01*
X47642606Y-49775144D01*
X47543322Y-49765000D01*
X47520000Y-49765000D01*
X47020000Y-49765000D01*
X47020000Y-49759746D01*
X46992834Y-49709997D01*
X46990000Y-49683637D01*
X46990000Y-49286361D01*
X47009685Y-49219322D01*
X47020000Y-49206520D01*
X47020000Y-48480000D01*
X47520000Y-48480000D01*
X47520000Y-49204999D01*
X47543308Y-49204999D01*
X47543322Y-49204998D01*
X47642607Y-49194855D01*
X47803481Y-49141547D01*
X47803492Y-49141542D01*
X47947728Y-49052575D01*
X47947732Y-49052572D01*
X48067572Y-48932732D01*
X48067575Y-48932728D01*
X48156542Y-48788492D01*
X48156547Y-48788481D01*
X48209855Y-48627606D01*
X48219999Y-48528322D01*
X48220000Y-48528309D01*
X48220000Y-48480000D01*
X47520000Y-48480000D01*
X47020000Y-48480000D01*
X47020000Y-47255000D01*
X47520000Y-47255000D01*
X47520000Y-47980000D01*
X48219999Y-47980000D01*
X48219999Y-47931692D01*
X48219998Y-47931677D01*
X48209855Y-47832392D01*
X48156547Y-47671518D01*
X48156542Y-47671507D01*
X48067575Y-47527271D01*
X48067572Y-47527267D01*
X47947732Y-47407427D01*
X47947728Y-47407424D01*
X47803492Y-47318457D01*
X47803481Y-47318452D01*
X47642606Y-47265144D01*
X47543322Y-47255000D01*
X47520000Y-47255000D01*
X47020000Y-47255000D01*
X47020000Y-47249746D01*
X46992834Y-47199997D01*
X46990000Y-47173637D01*
X46990000Y-46776361D01*
X47009685Y-46709322D01*
X47020000Y-46696520D01*
X47020000Y-45970000D01*
X47520000Y-45970000D01*
X47520000Y-46694999D01*
X47543308Y-46694999D01*
X47543322Y-46694998D01*
X47642607Y-46684855D01*
X47803481Y-46631547D01*
X47803492Y-46631542D01*
X47947728Y-46542575D01*
X47947732Y-46542572D01*
X48067572Y-46422732D01*
X48067575Y-46422728D01*
X48156542Y-46278492D01*
X48156547Y-46278481D01*
X48209855Y-46117606D01*
X48219999Y-46018322D01*
X48220000Y-46018309D01*
X48220000Y-45970000D01*
X47520000Y-45970000D01*
X47020000Y-45970000D01*
X47020000Y-44745000D01*
X47520000Y-44745000D01*
X47520000Y-45470000D01*
X48219999Y-45470000D01*
X48219999Y-45421692D01*
X48219998Y-45421677D01*
X48209855Y-45322392D01*
X48156547Y-45161518D01*
X48156542Y-45161507D01*
X48067575Y-45017271D01*
X48067572Y-45017267D01*
X47947732Y-44897427D01*
X47947728Y-44897424D01*
X47803492Y-44808457D01*
X47803481Y-44808452D01*
X47657261Y-44760000D01*
X50660000Y-44760000D01*
X51185000Y-44760000D01*
X51185000Y-43716324D01*
X51184998Y-43716323D01*
X51042310Y-43757778D01*
X51042307Y-43757780D01*
X50903668Y-43839770D01*
X50903660Y-43839776D01*
X50789776Y-43953660D01*
X50789770Y-43953668D01*
X50707780Y-44092307D01*
X50707779Y-44092310D01*
X50662844Y-44246975D01*
X50662843Y-44246981D01*
X50660000Y-44283115D01*
X50660000Y-44760000D01*
X47657261Y-44760000D01*
X47642606Y-44755144D01*
X47543322Y-44745000D01*
X47520000Y-44745000D01*
X47020000Y-44745000D01*
X47020000Y-44739746D01*
X46992834Y-44689997D01*
X46990000Y-44663637D01*
X46990000Y-43304500D01*
X47009685Y-43237461D01*
X47062489Y-43191706D01*
X47114000Y-43180500D01*
X51946000Y-43180500D01*
X52013039Y-43200185D01*
G37*
%TD.AperFunction*%
%TD*%
%TA.AperFunction,Conductor*%
%TO.N,+3.3V*%
G36*
X59489316Y-56755000D02*
G01*
X59489321Y-56755000D01*
X59489321Y-56755101D01*
X59489355Y-56755742D01*
X59554280Y-56767440D01*
X59605428Y-56815038D01*
X59614984Y-56835004D01*
X59666202Y-56972328D01*
X59666206Y-56972335D01*
X59752452Y-57087544D01*
X59752455Y-57087547D01*
X59867664Y-57173793D01*
X59867671Y-57173797D01*
X59867674Y-57173798D01*
X59999598Y-57223002D01*
X60055531Y-57264873D01*
X60079949Y-57330337D01*
X60065098Y-57398610D01*
X60043947Y-57426865D01*
X59921886Y-57548926D01*
X59786400Y-57742420D01*
X59786399Y-57742422D01*
X59686570Y-57956507D01*
X59686567Y-57956513D01*
X59629364Y-58169999D01*
X59629364Y-58170000D01*
X60526314Y-58170000D01*
X60500507Y-58210156D01*
X60460000Y-58348111D01*
X60460000Y-58491889D01*
X60500507Y-58629844D01*
X60526314Y-58670000D01*
X59629364Y-58670000D01*
X59686567Y-58883486D01*
X59686570Y-58883492D01*
X59786399Y-59097578D01*
X59921894Y-59291082D01*
X60088917Y-59458105D01*
X60274595Y-59588119D01*
X60318219Y-59642696D01*
X60325412Y-59712195D01*
X60293890Y-59774549D01*
X60274595Y-59791269D01*
X60088594Y-59921508D01*
X59921508Y-60088594D01*
X59881926Y-60145124D01*
X59827349Y-60188748D01*
X59780351Y-60198000D01*
X56629500Y-60198000D01*
X56562461Y-60178315D01*
X56516706Y-60125511D01*
X56505500Y-60074000D01*
X56505500Y-56990717D01*
X56525185Y-56923678D01*
X56577989Y-56877923D01*
X56630681Y-56866723D01*
X56664130Y-56867041D01*
X56677859Y-56867172D01*
X56677859Y-56867171D01*
X56677862Y-56867172D01*
X56747112Y-56857887D01*
X56747114Y-56857886D01*
X56872141Y-56822463D01*
X56885540Y-56818667D01*
X56885541Y-56818666D01*
X56885546Y-56818665D01*
X56977861Y-56777562D01*
X57002502Y-56769555D01*
X57058242Y-56757708D01*
X57084014Y-56755000D01*
X57140988Y-56755000D01*
X57166769Y-56757710D01*
X57222482Y-56769552D01*
X57247133Y-56777560D01*
X57290355Y-56796804D01*
X57290361Y-56796806D01*
X57290362Y-56796807D01*
X57313276Y-56805228D01*
X57321987Y-56808430D01*
X57369776Y-56822462D01*
X57435480Y-56837082D01*
X57471448Y-56837425D01*
X57579351Y-56838454D01*
X57579351Y-56838453D01*
X57579354Y-56838454D01*
X57648604Y-56829170D01*
X57648609Y-56829169D01*
X57787041Y-56789949D01*
X57814854Y-56777565D01*
X57839509Y-56769553D01*
X57857453Y-56765739D01*
X57895240Y-56757709D01*
X57921018Y-56755000D01*
X57977986Y-56755000D01*
X58003764Y-56757708D01*
X58059483Y-56769551D01*
X58084140Y-56777563D01*
X58215687Y-56836133D01*
X58222075Y-56839220D01*
X58222085Y-56839222D01*
X58222518Y-56839377D01*
X58226939Y-56841144D01*
X58230393Y-56842681D01*
X58232047Y-56844086D01*
X58261383Y-56852701D01*
X58261419Y-56852713D01*
X58267599Y-56854526D01*
X58327046Y-56871982D01*
X58327618Y-56872188D01*
X58330589Y-56873022D01*
X58330593Y-56873024D01*
X58473009Y-56893500D01*
X58473012Y-56893500D01*
X58919710Y-56893500D01*
X58919711Y-56893500D01*
X58926854Y-56893296D01*
X58933999Y-56893092D01*
X58938795Y-56892886D01*
X58948389Y-56892475D01*
X59089405Y-56863911D01*
X59146518Y-56843537D01*
X59146517Y-56843535D01*
X59146690Y-56843474D01*
X59154302Y-56843039D01*
X59177891Y-56832536D01*
X59182282Y-56830778D01*
X59183307Y-56830412D01*
X59186671Y-56828626D01*
X59188873Y-56827645D01*
X59188874Y-56827646D01*
X59301366Y-56777560D01*
X59325999Y-56769556D01*
X59381741Y-56757708D01*
X59407514Y-56755000D01*
X59485990Y-56755000D01*
X59486000Y-56755000D01*
X59486009Y-56754998D01*
X59489306Y-56754822D01*
X59489316Y-56755000D01*
G37*
%TD.AperFunction*%
%TA.AperFunction,Conductor*%
G36*
X62389777Y-56887141D02*
G01*
X62434000Y-56893500D01*
X62434003Y-56893500D01*
X62496500Y-56893500D01*
X62563539Y-56913185D01*
X62609294Y-56965989D01*
X62620500Y-57017500D01*
X62620500Y-60074000D01*
X62600815Y-60141039D01*
X62548011Y-60186794D01*
X62496500Y-60198000D01*
X62139649Y-60198000D01*
X62072610Y-60178315D01*
X62038074Y-60145124D01*
X61998491Y-60088594D01*
X61831402Y-59921506D01*
X61831401Y-59921505D01*
X61645405Y-59791269D01*
X61601781Y-59736692D01*
X61594588Y-59667193D01*
X61626110Y-59604839D01*
X61645405Y-59588119D01*
X61831082Y-59458105D01*
X61998105Y-59291082D01*
X62133600Y-59097578D01*
X62233429Y-58883492D01*
X62233432Y-58883486D01*
X62290636Y-58670000D01*
X61393686Y-58670000D01*
X61419493Y-58629844D01*
X61460000Y-58491889D01*
X61460000Y-58348111D01*
X61419493Y-58210156D01*
X61393686Y-58170000D01*
X62290636Y-58170000D01*
X62290635Y-58169999D01*
X62233432Y-57956513D01*
X62233429Y-57956507D01*
X62133600Y-57742422D01*
X62133599Y-57742420D01*
X61998113Y-57548926D01*
X61998108Y-57548920D01*
X61876053Y-57426865D01*
X61842568Y-57365542D01*
X61847552Y-57295850D01*
X61889424Y-57239917D01*
X61920400Y-57223002D01*
X62052331Y-57173796D01*
X62167546Y-57087546D01*
X62253796Y-56972331D01*
X62255952Y-56966547D01*
X62297822Y-56910615D01*
X62363286Y-56886196D01*
X62389777Y-56887141D01*
G37*
%TD.AperFunction*%
%TD*%
%TA.AperFunction,Conductor*%
%TO.N,GND*%
G36*
X60277539Y-51279685D02*
G01*
X60323294Y-51332489D01*
X60334500Y-51384000D01*
X60334500Y-51653060D01*
X60332775Y-51668677D01*
X60333061Y-51668704D01*
X60332326Y-51676470D01*
X60334500Y-51745619D01*
X60334500Y-51775148D01*
X60334501Y-51775165D01*
X60335368Y-51782036D01*
X60335826Y-51787855D01*
X60337290Y-51834429D01*
X60337291Y-51834432D01*
X60342880Y-51853672D01*
X60346824Y-51872716D01*
X60349336Y-51892596D01*
X60366490Y-51935924D01*
X60368382Y-51941452D01*
X60381381Y-51986193D01*
X60391580Y-52003439D01*
X60400138Y-52020908D01*
X60407514Y-52039537D01*
X60434898Y-52077228D01*
X60438106Y-52082112D01*
X60461827Y-52122221D01*
X60461833Y-52122229D01*
X60475990Y-52136385D01*
X60488627Y-52151180D01*
X60500406Y-52167392D01*
X60530040Y-52191907D01*
X60569148Y-52249807D01*
X60575000Y-52287451D01*
X60575000Y-52803673D01*
X60717694Y-52762218D01*
X60717695Y-52762218D01*
X60856328Y-52680231D01*
X60862027Y-52675811D01*
X60927063Y-52650274D01*
X60995580Y-52663951D01*
X61025712Y-52686107D01*
X62584181Y-54244576D01*
X62617666Y-54305899D01*
X62620500Y-54332257D01*
X62620500Y-56264000D01*
X62600815Y-56331039D01*
X62548011Y-56376794D01*
X62496500Y-56388000D01*
X62434000Y-56388000D01*
X62366961Y-56368315D01*
X62321206Y-56315511D01*
X62310000Y-56264000D01*
X62310000Y-56130000D01*
X61393686Y-56130000D01*
X61419493Y-56089844D01*
X61460000Y-55951889D01*
X61460000Y-55808111D01*
X61419493Y-55670156D01*
X61393686Y-55630000D01*
X62310000Y-55630000D01*
X62310000Y-54982172D01*
X62309999Y-54982155D01*
X62303598Y-54922627D01*
X62303596Y-54922620D01*
X62253354Y-54787913D01*
X62253350Y-54787906D01*
X62167190Y-54672812D01*
X62167187Y-54672809D01*
X62052093Y-54586649D01*
X62052086Y-54586645D01*
X61917379Y-54536403D01*
X61917372Y-54536401D01*
X61857844Y-54530000D01*
X61210000Y-54530000D01*
X61210000Y-55444498D01*
X61102315Y-55395320D01*
X60995763Y-55380000D01*
X60924237Y-55380000D01*
X60817685Y-55395320D01*
X60710000Y-55444498D01*
X60710000Y-54530000D01*
X60062155Y-54530000D01*
X60002627Y-54536401D01*
X60002620Y-54536403D01*
X59867913Y-54586645D01*
X59867906Y-54586649D01*
X59752812Y-54672809D01*
X59752809Y-54672812D01*
X59666649Y-54787906D01*
X59666645Y-54787913D01*
X59616403Y-54922620D01*
X59616401Y-54922627D01*
X59610000Y-54982155D01*
X59610000Y-55630000D01*
X60526314Y-55630000D01*
X60500507Y-55670156D01*
X60460000Y-55808111D01*
X60460000Y-55951889D01*
X60500507Y-56089844D01*
X60526314Y-56130000D01*
X59610000Y-56130000D01*
X59608129Y-56131870D01*
X59590315Y-56192539D01*
X59537511Y-56238294D01*
X59486000Y-56249500D01*
X59341354Y-56249500D01*
X59308897Y-56256398D01*
X59156197Y-56288855D01*
X59156192Y-56288857D01*
X58983266Y-56365850D01*
X58977641Y-56369098D01*
X58976674Y-56367424D01*
X58919561Y-56387798D01*
X58912491Y-56388000D01*
X58473009Y-56388000D01*
X58407971Y-56368902D01*
X58407859Y-56369098D01*
X58407054Y-56368633D01*
X58405970Y-56368315D01*
X58403077Y-56366337D01*
X58402233Y-56365850D01*
X58229307Y-56288857D01*
X58229302Y-56288855D01*
X58083501Y-56257865D01*
X58044146Y-56249500D01*
X57854854Y-56249500D01*
X57822397Y-56256398D01*
X57669697Y-56288855D01*
X57669695Y-56288856D01*
X57581435Y-56328152D01*
X57512185Y-56337436D01*
X57480565Y-56328152D01*
X57392304Y-56288856D01*
X57392302Y-56288855D01*
X57246501Y-56257865D01*
X57207146Y-56249500D01*
X57017854Y-56249500D01*
X56985397Y-56256398D01*
X56832697Y-56288855D01*
X56832692Y-56288857D01*
X56679936Y-56356870D01*
X56610686Y-56366155D01*
X56547409Y-56336527D01*
X56510196Y-56277392D01*
X56505500Y-56243591D01*
X56505500Y-56067861D01*
X56525185Y-56000822D01*
X56541814Y-55980185D01*
X58245182Y-54276817D01*
X58306503Y-54243334D01*
X58332861Y-54240500D01*
X58514644Y-54240500D01*
X58514646Y-54240500D01*
X58699803Y-54201144D01*
X58872730Y-54124151D01*
X59025871Y-54012888D01*
X59152533Y-53872216D01*
X59247179Y-53708284D01*
X59305674Y-53528256D01*
X59323321Y-53360345D01*
X59349905Y-53295732D01*
X59358952Y-53285636D01*
X59438786Y-53205802D01*
X59451048Y-53195980D01*
X59450865Y-53195759D01*
X59456867Y-53190792D01*
X59456877Y-53190786D01*
X59504241Y-53140348D01*
X59525120Y-53119470D01*
X59529373Y-53113986D01*
X59533150Y-53109563D01*
X59565062Y-53075582D01*
X59574714Y-53058023D01*
X59585389Y-53041772D01*
X59597674Y-53025936D01*
X59616186Y-52983152D01*
X59618742Y-52977935D01*
X59641197Y-52937092D01*
X59646180Y-52917680D01*
X59652477Y-52899291D01*
X59660438Y-52880895D01*
X59667728Y-52834857D01*
X59668911Y-52829150D01*
X59677483Y-52795766D01*
X59713221Y-52735732D01*
X59775745Y-52704547D01*
X59845204Y-52712115D01*
X59860706Y-52719876D01*
X59932301Y-52762216D01*
X59932305Y-52762218D01*
X60075000Y-52803674D01*
X60075000Y-51384000D01*
X60094685Y-51316961D01*
X60147489Y-51271206D01*
X60199000Y-51260000D01*
X60210500Y-51260000D01*
X60277539Y-51279685D01*
G37*
%TD.AperFunction*%
%TD*%
M02*
