%TF.GenerationSoftware,KiCad,Pcbnew,7.0.8*%
%TF.CreationDate,2023-10-11T21:25:33+02:00*%
%TF.ProjectId,test_sr,74657374-5f73-4722-9e6b-696361645f70,rev?*%
%TF.SameCoordinates,Original*%
%TF.FileFunction,Copper,L4,Bot*%
%TF.FilePolarity,Positive*%
%FSLAX46Y46*%
G04 Gerber Fmt 4.6, Leading zero omitted, Abs format (unit mm)*
G04 Created by KiCad (PCBNEW 7.0.8) date 2023-10-11 21:25:33*
%MOMM*%
%LPD*%
G01*
G04 APERTURE LIST*
%TA.AperFunction,ComponentPad*%
%ADD10R,1.700000X1.700000*%
%TD*%
%TA.AperFunction,ComponentPad*%
%ADD11O,1.700000X1.700000*%
%TD*%
%TA.AperFunction,ViaPad*%
%ADD12C,0.800000*%
%TD*%
%TA.AperFunction,Conductor*%
%ADD13C,0.250000*%
%TD*%
G04 APERTURE END LIST*
D10*
%TO.P,J1,1,Pin_1*%
%TO.N,/QA*%
X45720000Y-55880000D03*
D11*
%TO.P,J1,2,Pin_2*%
%TO.N,/QB*%
X45720000Y-58420000D03*
%TO.P,J1,3,Pin_3*%
%TO.N,/QC*%
X45720000Y-60960000D03*
%TO.P,J1,4,Pin_4*%
%TO.N,/QD*%
X45720000Y-63500000D03*
%TO.P,J1,5,Pin_5*%
%TO.N,/QE*%
X45720000Y-66040000D03*
%TO.P,J1,6,Pin_6*%
%TO.N,/QF*%
X45720000Y-68580000D03*
%TO.P,J1,7,Pin_7*%
%TO.N,/QG*%
X45720000Y-71120000D03*
%TO.P,J1,8,Pin_8*%
%TO.N,/QH*%
X45720000Y-73660000D03*
%TD*%
D10*
%TO.P,J2,1,Pin_1*%
%TO.N,GND*%
X60960000Y-55880000D03*
D11*
%TO.P,J2,2,Pin_2*%
%TO.N,+3.3V*%
X60960000Y-58420000D03*
%TO.P,J2,3,Pin_3*%
%TO.N,/SEROUT*%
X60960000Y-60960000D03*
%TO.P,J2,4,Pin_4*%
%TO.N,/N_SR_CLR*%
X60960000Y-63500000D03*
%TO.P,J2,5,Pin_5*%
%TO.N,/R_CLK*%
X60960000Y-66040000D03*
%TO.P,J2,6,Pin_6*%
%TO.N,/SR_CLK*%
X60960000Y-68580000D03*
%TO.P,J2,7,Pin_7*%
%TO.N,/N_OE*%
X60960000Y-71120000D03*
%TO.P,J2,8,Pin_8*%
%TO.N,/SER*%
X60960000Y-73660000D03*
%TD*%
D12*
%TO.N,GND*%
X59436000Y-55118000D03*
X60452000Y-53594000D03*
X61468000Y-53594000D03*
%TO.N,+3.3V*%
X57112500Y-59690000D03*
X57949500Y-59690000D03*
X57949500Y-57150000D03*
X57112500Y-57150000D03*
X59436000Y-59690000D03*
X59436000Y-57150000D03*
X59436000Y-58420000D03*
X47244000Y-49530000D03*
X47244000Y-46990000D03*
%TO.N,/SEROUT*%
X61033149Y-46916850D03*
%TO.N,GND*%
X62230000Y-47625000D03*
X54990000Y-67310000D03*
X54990000Y-62230000D03*
X54990000Y-59690000D03*
X54990000Y-64770000D03*
X59690000Y-49530000D03*
X45720000Y-49530000D03*
X45720000Y-46990000D03*
X54990000Y-69850000D03*
X54990000Y-72390000D03*
%TO.N,+3.3V*%
X49530000Y-45720000D03*
%TO.N,/QA*%
X49530000Y-46990000D03*
%TO.N,/QB*%
X49530000Y-48260000D03*
%TO.N,/QC*%
X50800000Y-48260000D03*
%TO.N,/QD*%
X52070000Y-48260000D03*
%TO.N,/QE*%
X54610000Y-48895000D03*
%TO.N,/QF*%
X55880000Y-53340000D03*
%TO.N,/QG*%
X57150000Y-53340000D03*
%TO.N,/QH*%
X58420000Y-53340000D03*
%TO.N,/N_SR_CLR*%
X62020750Y-51771250D03*
%TO.N,/R_CLK*%
X59690000Y-48260000D03*
%TO.N,/N_OE*%
X58420000Y-48260000D03*
%TD*%
D13*
%TO.N,/N_OE*%
X56388000Y-56397305D02*
X56388000Y-66548000D01*
X56388000Y-66548000D02*
X60960000Y-71120000D01*
X58870000Y-52764695D02*
X59145000Y-53039695D01*
X59145000Y-53039695D02*
X59145000Y-53640305D01*
X59145000Y-53640305D02*
X56388000Y-56397305D01*
X58870000Y-48710000D02*
X58870000Y-52764695D01*
X58420000Y-48260000D02*
X58870000Y-48710000D01*
%TO.N,/R_CLK*%
X58674000Y-63754000D02*
X60960000Y-66040000D01*
X58674000Y-54747701D02*
X58674000Y-63754000D01*
X59320000Y-52578299D02*
X59595000Y-52853299D01*
X59320000Y-50925305D02*
X59320000Y-52578299D01*
X59595000Y-52853299D02*
X59595000Y-53826701D01*
X59595000Y-53826701D02*
X58674000Y-54747701D01*
X60415000Y-49830305D02*
X59320000Y-50925305D01*
X60415000Y-48985000D02*
X60415000Y-49830305D01*
X59690000Y-48260000D02*
X60415000Y-48985000D01*
%TO.N,/N_SR_CLR*%
X62738000Y-52488500D02*
X62738000Y-61722000D01*
X62738000Y-61722000D02*
X60960000Y-63500000D01*
X62020750Y-51771250D02*
X62738000Y-52488500D01*
%TO.N,/QA*%
X48768000Y-49652812D02*
X45720000Y-52700812D01*
X45720000Y-52700812D02*
X45720000Y-55880000D01*
X48768000Y-47752000D02*
X48768000Y-49652812D01*
X49530000Y-46990000D02*
X48768000Y-47752000D01*
%TO.N,/QB*%
X49530000Y-49527208D02*
X49530000Y-48260000D01*
X46990000Y-52067208D02*
X49530000Y-49527208D01*
X45720000Y-58420000D02*
X46990000Y-57150000D01*
X46990000Y-57150000D02*
X46990000Y-52067208D01*
%TO.N,/QC*%
X50800000Y-48893604D02*
X50800000Y-48260000D01*
X47440000Y-52253604D02*
X50800000Y-48893604D01*
X45720000Y-60960000D02*
X47440000Y-59240000D01*
X47440000Y-59240000D02*
X47440000Y-52253604D01*
%TO.N,/SEROUT*%
X62230000Y-59690000D02*
X60960000Y-60960000D01*
X62230000Y-53005805D02*
X62230000Y-59690000D01*
X61033149Y-51808954D02*
X62230000Y-53005805D01*
X61033149Y-46916850D02*
X61033149Y-51808954D01*
%TO.N,/QB*%
X45720000Y-58420000D02*
X46353604Y-58420000D01*
%TO.N,/QD*%
X47890000Y-52440000D02*
X47890000Y-61330000D01*
X47890000Y-61330000D02*
X45720000Y-63500000D01*
X52070000Y-48260000D02*
X47890000Y-52440000D01*
%TO.N,/QE*%
X47942500Y-63817500D02*
X45720000Y-66040000D01*
X48578198Y-63181802D02*
X47942500Y-63817500D01*
X51981396Y-48985000D02*
X48578198Y-52388198D01*
X48578198Y-52388198D02*
X48578198Y-63181802D01*
X54610000Y-48895000D02*
X54520000Y-48985000D01*
X54520000Y-48985000D02*
X51981396Y-48985000D01*
%TO.N,/QF*%
X50800000Y-63500001D02*
X45720000Y-68580000D01*
X50800000Y-58420000D02*
X50800000Y-63500001D01*
X55880000Y-53340000D02*
X50800000Y-58420000D01*
%TO.N,/QG*%
X52070000Y-64770000D02*
X45720000Y-71120000D01*
X52070000Y-58420000D02*
X52070000Y-64770000D01*
X57150000Y-53340000D02*
X52070000Y-58420000D01*
%TO.N,/QH*%
X58420000Y-53340000D02*
X53340000Y-58420000D01*
X53340000Y-58420000D02*
X53340000Y-66040000D01*
X53340000Y-66040000D02*
X45720000Y-73660000D01*
%TD*%
M02*
